<svg width="651" height="636" viewBox="0 0 651 636" fill="none" xmlns="http://www.w3.org/2000/svg">
<g opacity="0.1" clip-path="url(#clip0)">
<path d="M584.454 140.217C591.269 143.036 597.756 146.653 604.337 150.035C606.405 151.115 609.601 153.84 612.139 153.981C612.354 153.742 612.5 153.45 612.563 153.135C612.351 152.405 612.067 151.697 611.716 151.021C610.932 149.023 609.989 147.091 608.896 145.243C605.559 140.546 602.645 134.11 600.623 131.151C594.173 122.225 586.936 113.893 579.001 106.254C559.863 86.4777 538.795 68.6637 516.109 53.0778L515.639 52.7489L510.939 49.6955C502.008 43.5887 492.654 37.8108 483.065 32.5025L476.908 29.2143C466.996 23.9147 456.778 19.2088 446.308 15.1216L440.996 13.1956C420.405 5.66009 398.75 1.42698 376.835 0.653211C360.148 0.230432 343.133 -0.474199 326.211 0.465309L320.477 0.841112H318.549L316.152 1.12296C310.841 1.8276 305.529 2.53223 300.359 3.61266L297.256 4.36427C295.47 4.78705 293.684 5.16285 291.851 5.67958C281.617 8.76216 271.786 13.0514 262.567 18.4569C260.828 19.4434 259.136 20.4299 257.444 21.5103C254.67 23.4833 251.944 25.1274 249.124 27.0534L247.15 28.6036C243.626 31.2816 240.252 34.1514 237.044 37.2001L236.104 38.0456L234.787 39.4549C232.296 42.0728 230.017 44.8845 227.972 47.8635C226.311 50.2749 224.744 52.7646 223.271 55.3326V55.6144V55.8493C222.488 57.2586 221.72 58.6835 220.968 60.1241C218.477 64.8216 216.268 69.5191 213.776 74.4985L211.755 78.4445C209.682 82.4958 207.392 86.4318 204.893 90.2353L203.106 92.819C201.108 95.6339 198.892 98.2883 196.479 100.758L190.697 106.536L188.582 108.744C184.73 112.661 181.325 116.994 178.429 121.662C177.363 123.402 176.405 125.206 175.562 127.064C175.152 128.026 174.806 129.015 174.528 130.023C172.747 138.395 173.55 147.109 176.831 155.014C180.685 166.617 185.762 177.985 190.462 189.306L188.394 188.414L187.595 187.897L186.326 187.24L185.292 186.629L184.305 186.065L182.236 184.844H182.001C179.744 183.41 177.369 182.169 174.904 181.133C167.02 178.437 158.683 177.32 150.367 177.844C139.791 178.22 129.215 180.24 118.639 180.804C108.769 181.001 98.9744 182.582 89.5435 185.501C70.3994 192.914 53.083 204.371 38.7787 219.089C23.5022 234.074 18.0497 250.562 15.9815 271.56C14.9309 280.432 13.0744 289.19 10.435 297.726L8.88385 303.175C8.10044 305.868 7.3327 308.546 6.58063 311.208C6.11058 312.852 5.64054 314.496 5.2175 316.14C4.15206 320.305 3.24331 324.533 2.49124 328.823C2.49124 329.622 2.16221 330.421 2.0682 331.219V332.065C1.36313 336.011 0.94009 340.144 0.564054 344.325C0.564054 345.5 0.564054 346.674 0.282027 347.848C0.094009 351.826 0 355.803 0 359.78C0 360.861 0 361.988 0 363.068C0 366.967 0.42304 370.866 0.846081 374.718C0.846081 375.517 0.846081 376.315 1.0811 377.067C1.41013 379.51 1.83318 381.765 2.30322 384.301C2.58525 385.711 2.91428 387.073 3.24331 388.482C3.57234 389.891 3.85437 391.207 4.2304 392.569C4.84146 394.777 5.54653 396.985 6.2516 399.193L7.05067 401.588C8.24145 405.127 9.51058 408.619 10.858 412.064L12.2212 415.446C13.1299 417.638 14.0543 419.815 14.9944 421.976L16.4046 424.982C17.47 427.268 18.5511 429.539 19.6479 431.793L20.964 434.471C22.6248 437.603 24.3327 440.734 26.0875 443.866L27.1216 445.698L29.0488 449.08L31.9631 454.06L33.6082 456.831C35.269 459.619 36.9612 462.374 38.6847 465.099L40.6589 468.199C42.4921 470.924 44.3722 473.602 46.3464 476.138L48.1326 478.487C50.3973 481.264 52.8305 483.9 55.4183 486.379C57.202 488.038 59.0689 489.606 61.0118 491.076L61.8579 491.734C62.516 492.251 63.174 492.815 63.8791 493.284L64.1611 493.613L65.2892 494.318L66.6994 495.21C67.3174 495.642 68.0239 495.931 68.7676 496.056H70.5067C70.6302 495.907 70.7194 495.734 70.7682 495.547C70.8169 495.36 70.8239 495.165 70.7888 494.975C70.6792 494.338 70.4391 493.73 70.0837 493.19C69.4256 492.533 68.8616 491.781 68.2505 491.076C67.3689 490.032 66.5526 488.933 65.8063 487.788C63.4984 484.18 61.8141 480.21 60.8238 476.044C60.8238 475.105 60.4478 474.165 60.2598 473.179C59.7972 470.493 59.5301 467.777 59.4607 465.052C59.4607 463.674 59.4607 462.28 59.4607 460.871C59.6014 457.409 59.9468 453.958 60.4948 450.537C60.6828 449.347 60.8865 448.172 61.1058 447.014C61.7169 443.725 62.469 440.531 63.315 437.618C63.6597 436.397 64.0044 435.191 64.3491 434.001L64.6782 432.78C65.5713 429.914 66.6054 427.002 67.5925 424.136C68.0625 422.727 68.4855 421.318 69.0026 419.909C69.9427 417.278 70.9298 414.694 71.9639 412.111L72.857 409.809C73.9381 407.084 75.0192 404.36 76.1473 401.635C77.2754 398.911 78.5915 396.092 79.8606 393.321C82.7279 387.12 85.6422 381.013 88.7915 375.141C93.0689 367.202 102.893 352.734 113.422 356.821C124.703 361.236 115.819 381.624 112.717 388.717C105.384 405.487 95.3721 420.378 89.5435 437.9C86.5959 446.549 84.8252 455.555 84.2791 464.676C84.2791 465.992 84.2791 467.307 84.2791 468.622C84.2258 472.848 84.4929 477.073 85.0781 481.259C85.624 484.821 86.4893 488.327 87.6634 491.734C88.1334 493.19 88.6975 494.647 89.2615 496.103C94.3644 507.494 101.286 517.981 109.755 527.154C111.495 529.127 113.375 530.912 115.161 532.838C116.947 534.764 117.464 535.327 118.686 536.549C123.387 541.246 128.51 545.709 133.728 549.89L138.428 553.366C144.069 557.735 149.85 561.915 155.726 565.861C158.264 567.552 160.896 569.15 163.529 570.559C166.161 571.968 170.203 574.364 173.541 576.243L178.241 578.779L180.685 580.142C181.367 580.544 182.026 580.983 182.659 581.457C184.075 582.181 185.414 583.047 186.655 584.041L188.065 585.121C188.664 585.584 189.292 586.007 189.945 586.39L190.744 586.812C191.958 587.554 193.366 587.914 194.787 587.846C195.13 587.266 195.279 586.59 195.21 585.92C194.394 583.798 193.42 581.741 192.295 579.766C191.59 578.545 190.885 577.37 190.133 576.149C187.971 572.72 185.433 569.337 183.647 565.908L182.377 563.606L182.048 563.043C180.538 559.99 179.204 556.853 178.053 553.648C177.677 552.708 177.348 551.769 176.972 550.782C176.596 549.796 176.173 548.433 175.797 547.259C174.528 543.172 173.447 538.991 172.553 534.81C172.553 534.81 172.553 534.388 172.553 534.2C172.553 534.012 172.553 533.166 172.271 532.65C172.036 531.287 171.801 529.925 171.613 528.61C170.355 519.189 170.135 509.659 170.955 500.19C170.955 498.827 170.955 497.418 171.284 496.056C171.989 488.681 172.977 481.306 173.964 473.695V473.32L174.387 470.266C174.387 468.81 174.763 467.354 174.998 465.945C175.624 461.592 176.33 457.238 177.113 452.885C177.364 451.539 177.614 450.208 177.865 448.892C178.993 443.115 180.356 437.337 181.954 431.653C182.581 429.398 183.255 427.159 183.976 424.935C185.198 421.224 186.467 417.513 187.971 413.896C193.47 400.602 203.435 388.905 212.46 378.007C218.9 370.209 228.771 360.391 239.065 367.813C245.786 372.511 245.551 384.301 245.175 391.676C244.576 401.207 243.001 410.652 240.475 419.862C240.146 421.177 239.817 422.492 239.441 423.808C237.044 432.357 234.129 440.813 231.074 449.221L228.865 455.328C227.126 460.026 225.387 464.723 223.741 469.703L222.519 473.273C220.545 479.145 218.665 485.017 217.114 490.935V491.687C216.268 494.928 215.563 498.17 214.952 501.411C214.67 502.867 214.387 504.37 214.152 505.827C213.917 507.283 213.635 509.162 213.4 510.853C212.628 516.695 212.204 522.577 212.131 528.469C212.131 529.69 212.131 530.912 212.131 532.133C212.131 536.737 212.413 541.356 212.977 545.991C212.977 547.259 213.353 548.48 213.541 549.702C213.729 550.923 213.541 550.97 213.823 551.581C214.545 555.693 215.679 559.721 217.208 563.606C217.725 564.875 218.289 566.096 218.853 567.318C221.355 572.377 224.603 577.033 228.489 581.128L230.51 583.148C231.497 584.135 232.484 585.121 233.565 586.061C236.01 588.222 238.548 590.241 241.18 592.167L244.047 594.281C245.865 595.565 247.714 596.787 249.594 597.945L252.367 599.59C255.469 601.422 258.666 603.207 261.768 604.804L264.306 606.025L266.045 606.824L270.182 608.656L271.075 609.032C273.77 610.19 276.48 611.286 279.207 612.32L281.51 613.165L289.407 615.937L292.321 616.924L299.654 619.225L301.957 619.93L309.431 622.138L312.016 622.889L320.571 625.285L322.874 625.943L329.642 627.869L331.382 628.386C331.563 628.317 331.764 628.317 331.946 628.386H332.275H332.792C333.763 628.542 334.218 627.869 334.155 626.366C333.661 625.595 333.077 624.885 332.416 624.252L331.147 622.983L330.207 621.997C329.478 621.266 328.846 620.445 328.326 619.554L327.245 618.145L324.331 615.373C323.579 614.575 322.874 613.776 322.263 613.025C319.944 610.112 317.672 607.168 315.447 604.193L312.909 600.67C311.546 598.791 310.23 596.959 308.866 595.08C308.208 594.094 307.597 593.107 306.939 592.121L305.388 589.772C303.539 586.953 301.769 584.088 300.077 581.175C299.419 580.001 298.667 578.873 298.008 577.699C297.35 576.525 295.987 573.941 295 572.062C294.013 570.183 293.731 569.666 293.12 568.445C291.24 564.687 289.454 560.929 287.809 557.077C287.526 556.372 287.244 555.668 286.962 555.01C286.68 554.352 285.975 552.52 285.552 551.299C285.129 550.078 284.847 549.279 284.518 548.245C283.625 545.38 282.826 542.515 282.168 539.602C281.839 538.099 281.463 536.596 281.181 534.904L280.664 532.18C280.382 530.645 280.115 529.08 279.865 527.482L279.583 525.744C279.207 523.442 278.878 521.047 278.549 518.839L277.938 514.564C276.935 507.697 276.292 500.782 276.01 493.848C275.848 488.873 276.084 483.894 276.715 478.957C276.715 477.594 277.138 476.279 277.421 474.917C278.035 469.606 280.557 464.699 284.518 461.106C286.109 460.09 287.935 459.499 289.82 459.392C291.705 459.285 293.586 459.665 295.282 460.495C297.009 461.201 298.6 462.203 299.983 463.455C304.597 468.164 308.099 473.846 310.23 480.084C310.888 481.681 311.452 483.232 312.016 484.782L313.614 489.15C316.004 495.636 318.013 502.255 319.631 508.974C320.195 511.292 320.712 513.609 321.182 515.926C323.297 525.838 324.895 535.844 326.587 545.756L326.822 547.071C327.104 548.809 327.433 550.5 327.762 552.191V552.802C328.373 559.144 328.937 565.532 329.737 571.827C330.066 574.505 330.489 577.182 330.912 579.813C331.62 583.888 332.562 587.918 333.732 591.886C334.359 594.015 335.079 596.098 335.894 598.133C337.546 602.429 339.675 606.525 342.24 610.347C342.898 611.286 343.556 612.273 344.261 613.165C345.901 615.266 347.691 617.244 349.619 619.084L350.183 619.648C350.794 620.212 351.453 620.635 352.064 621.198C354.065 622.912 356.185 624.482 358.409 625.896C359.255 626.46 360.101 627.023 360.995 627.493C363.827 629.074 366.782 630.425 369.831 631.533L372.323 632.378C376.247 633.634 380.273 634.546 384.356 635.103L386.424 635.385C389.436 635.735 392.464 635.923 395.496 635.949H397.47C399.256 635.949 401.089 635.949 402.875 635.949C404.662 635.949 406.401 635.573 408.14 635.385L410.96 635.009C413.263 634.633 415.661 634.257 417.776 633.741L419.233 633.365L421.724 632.754C425.61 631.783 429.48 630.687 433.334 629.466L436.249 628.526C440.338 627.164 444.38 625.661 448.47 624.111L451.525 622.936L461.443 618.943L464.216 617.816L475.779 613.119L478.647 611.944L485.603 609.173L486.919 608.656L490.962 607.153L493.5 606.213C497.59 604.71 501.726 603.301 505.909 601.985H506.238L508.965 601.281C512.789 600.238 516.664 599.391 520.575 598.744L523.066 598.321C528.282 597.542 533.54 597.087 538.812 596.959H545.581C549.953 596.959 554.371 597.382 558.742 597.898L561.845 598.415C565.746 598.979 569.6 599.731 573.408 600.623L576.98 601.469C581.023 602.549 585.018 603.723 588.919 605.18H589.436L589.671 604.898C589.671 604.898 589.671 604.428 589.671 604.193C589.251 603.31 588.89 602.4 588.59 601.469V600.999C586.762 596.505 585.3 591.87 584.219 587.141C583.67 584.801 583.247 582.433 582.95 580.048C582.119 572.801 582.5 565.467 584.078 558.345C584.407 556.795 584.83 555.245 585.253 553.648C586.146 550.078 587.227 546.601 588.402 543.125C588.778 542.045 589.201 540.964 589.577 539.884L590.188 538.146C594.889 525.65 600.952 513.578 606.405 501.458L608.003 497.935L609.742 493.848C613.55 484.735 617.686 475.715 621.775 466.696C623.844 462.124 625.88 457.536 627.886 452.932L629.437 449.268C631.176 445.228 632.868 441.189 634.467 437.149C641.59 419.772 642.908 400.561 638.227 382.375V381.53C637.804 379.792 637.381 378.054 636.958 376.316C635.475 368.81 633.059 361.519 629.766 354.613C625.399 346.663 619.69 339.528 612.892 333.521C599.26 320.791 580.834 314.731 563.396 310.268C543.304 305.45 522.878 302.153 502.29 300.403C491.996 299.323 483.864 297.115 476.955 288.753C474.798 286.532 473.352 283.721 472.8 280.676C472.247 277.631 472.614 274.49 473.852 271.654C477.113 267.743 481.145 264.545 485.697 262.259C492.137 259.065 500.88 259.77 507.789 259.488C524.48 259.231 541.154 260.631 557.567 263.668C573.197 265.938 588.64 269.344 603.773 273.862C610.917 276.164 617.874 279.029 624.925 281.801C631.975 284.573 637.616 286.78 643.727 289.646C652.328 293.545 649.649 284.948 649.931 278.56C650.033 273.856 649.86 269.151 649.414 264.467C648.304 251.588 645.637 238.89 641.47 226.652C640.718 224.444 639.919 222.236 639.12 220.122C638.368 218.243 637.616 216.364 636.77 214.532V214.203C629.101 196.323 615.23 181.811 597.709 173.335C556.486 153.464 517.331 177.187 478.083 190.058C458.2 196.588 434.463 201.332 414.862 191.561C407.764 188.038 400.102 181.321 400.431 172.442C401.089 154.498 423.04 149.377 436.39 145.948C456.273 140.828 476.485 137.821 496.743 134.627C521.263 130.478 546.334 130.829 570.729 135.661L572.374 135.989C576.516 137.044 580.558 138.459 584.454 140.217ZM379.42 6.47816C399.238 7.42377 418.803 11.3186 437.471 18.0341L442.547 19.8192C446.355 21.1815 450.115 22.5907 453.734 24.0939C457.354 25.5972 461.678 27.5231 465.579 29.3552C468.682 30.8114 471.69 32.4086 474.745 34.0527C485.1 39.5308 495.157 45.5521 504.875 52.0913C494.675 55.9902 484.24 60.4999 473.758 65.7141L468.071 68.6736L463.934 70.8345C456.179 75.1092 448.235 79.1961 440.432 83.189C417.635 94.9798 394.086 107.146 373.451 124.105L371.758 125.514C376.459 119.36 380.736 112.783 385.202 106.724C390.304 99.3864 396.012 92.4884 402.264 86.1015C404.427 83.9876 406.448 81.7797 408.657 79.6658C409.785 78.5854 410.96 77.505 412.182 76.5655C412.865 75.9407 413.588 75.3602 414.345 74.8274C415.069 74.4827 415.761 74.074 416.413 73.606C416.706 73.4369 416.949 73.1938 417.118 72.9011C417.287 72.6084 417.376 72.2764 417.376 71.9384C417.376 71.6004 417.287 71.2684 417.118 70.9757C416.949 70.683 416.706 70.4398 416.413 70.2708L415.755 69.9419C410.375 68.8882 405.068 67.4917 399.867 65.7611C392.845 64.9057 385.735 65.0798 378.762 66.2778C365.79 68.3268 353.357 72.9422 342.193 79.8537C331.664 86.0075 319.819 93.2417 313.426 104.14C310.581 109.187 308.805 114.764 308.206 120.526C307.608 126.287 308.201 132.11 309.948 137.633C313.332 147.357 324.895 150.787 333.826 150.411C338.705 150.235 343.5 149.085 347.927 147.029C333.591 160.651 319.254 175.824 304.307 193.111C298.62 199.688 292.744 206.358 287.056 212.794C281.369 219.23 274.788 226.887 268.725 233.698C267.926 234.638 267.079 235.718 266.139 236.893C264.061 239.523 261.782 241.988 259.324 244.268C257.507 246.17 255.169 247.494 252.602 248.073C251.739 248.261 250.84 248.202 250.008 247.903C249.177 247.604 248.447 247.076 247.902 246.382C247.164 245.465 246.653 244.388 246.408 243.237C246.163 242.087 246.192 240.895 246.492 239.758C247.538 236.443 249.024 233.284 250.91 230.363C252.483 227.845 253.82 225.187 254.905 222.424C256.645 217.727 258.055 212.465 259.606 207.533V207.11C261.58 199.97 263.366 192.689 265.152 185.595C266.939 178.502 268.584 171.503 270.511 164.785C273.801 152.76 278.22 140.781 282.497 129.178L285.317 121.474C295.271 93.2822 307.73 66.0374 322.545 40.0656C329.592 28.1233 337.297 16.581 345.624 5.49168C357.234 5.6326 368.421 6.19631 379.42 6.47816ZM354.367 137.07C343.932 145.619 322.263 150.787 314.93 135.567C308.349 122.085 317.985 103.811 328.467 96.2012C338.569 88.3549 349.624 81.8202 361.371 76.7534C373.344 72.1666 386.193 70.3206 398.974 71.3512C402.546 71.5861 406.824 73.0893 410.913 73.7C406.291 77.1348 401.982 80.9703 398.034 85.162C389.921 93.3666 382.559 102.281 376.036 111.797C369.828 121.054 362.538 129.538 354.32 137.07H354.367ZM225.293 64.07L226.045 62.5668C226.75 61.2045 227.408 59.8892 228.113 58.5739C228.818 57.2586 229.805 55.6614 230.698 54.2521C232.717 51.1046 234.98 48.1204 237.467 45.3268C238.172 44.5282 238.924 43.7766 239.676 43.025C242.914 39.6198 246.42 36.4782 250.158 33.6299L252.132 32.1737C253.871 30.9523 255.61 29.731 257.444 28.5566L259.23 27.4292L264.541 24.2349C273.519 18.8763 283.054 14.5131 292.979 11.2227C294.671 10.659 296.41 10.1892 298.102 9.71946H298.714C305.111 8.13697 311.614 7.02227 318.173 6.38421C320.054 6.38421 321.934 6.10236 323.814 5.96143C328.514 5.6326 333.497 5.39773 338.385 5.35075C333.326 11.3373 328.618 17.6111 324.284 24.1409C310.678 45.916 298.992 68.8324 289.36 92.6311C279.306 115.515 270.825 139.057 263.977 163.094C262.426 168.966 260.922 174.932 259.277 180.71C257.538 187.756 255.751 194.803 253.777 202.131C253.166 204.292 252.649 206.499 252.085 208.613C250.977 213.386 249.596 218.091 247.949 222.706C246.799 226.17 244.961 229.366 242.543 232.101C241.039 233.604 239.864 234.168 239.065 233.792C236.574 232.524 237.232 222.612 237.561 218.384C237.561 217.069 237.561 216.129 237.561 215.66C237.262 209.798 236.492 203.97 235.257 198.232C233.33 188.837 230.557 179.817 227.737 170.986C223.211 157.946 220.06 144.469 218.336 130.775C218.336 128.802 218.054 126.829 217.96 124.856C217.866 122.883 217.96 120.722 217.96 118.655C217.96 113.206 218.148 107.773 218.524 102.355C218.743 99.6304 219.025 96.9058 219.37 94.1812C220.679 84.0249 222.658 73.966 225.293 64.07ZM183.6 158.021C181.963 154.036 180.795 149.874 180.121 145.619C179.667 142.793 179.557 139.922 179.792 137.07C180.459 130.488 182.986 124.231 187.078 119.031C187.971 117.857 188.864 116.729 189.804 115.602L191.919 113.253C196.197 108.556 200.756 104.234 204.987 99.4895L206.914 97.2346C208.616 95.2081 210.186 93.0741 211.614 90.846C212.46 89.5307 213.212 88.1684 213.964 86.8061L214.622 85.6787C214.622 86.3833 214.387 87.088 214.246 87.7926C212.768 95.5428 211.888 103.395 211.614 111.28C211.614 112.267 211.614 113.253 211.614 114.193C211.567 119.29 211.786 124.386 212.272 129.46C213.827 143.824 216.851 157.99 221.297 171.738L223.224 177.844C226.803 188.034 229.4 198.541 230.98 209.224C230.98 209.788 230.98 210.539 231.262 211.338C231.826 215.707 233.048 224.726 231.262 226.511C230.134 227.544 227.878 225.524 226.233 223.692L225.293 222.659L218.242 214.767C213.917 210.07 209.358 204.949 204.987 200.205C200.615 195.46 196.855 191.279 192.718 186.911C190.392 176.988 187.329 167.253 183.553 157.786L183.6 158.021ZM26.3695 247.697C31.0104 236.804 38.1423 227.151 47.1925 219.512C61.7511 205.357 79.4758 194.873 98.8975 188.931C107.758 187.226 116.76 186.361 125.784 186.347C135.185 185.736 144.586 183.904 153.987 183.341C163.46 182.954 172.889 184.838 181.484 188.837C183.412 189.729 185.48 190.763 187.642 191.561C191.449 195.977 195.398 200.205 199.346 204.433C202.448 207.768 205.645 211.15 208.747 214.532L211.849 218.102C214.199 220.78 216.55 223.598 219.182 226.182C219.934 226.934 220.78 227.685 221.72 228.531C224.349 230.529 226.527 233.058 228.113 235.953C228.427 236.481 228.561 237.097 228.493 237.707C228.425 238.318 228.16 238.889 227.737 239.335C225.426 240.684 222.715 241.183 220.075 240.744C217.631 240.591 215.198 240.293 212.789 239.852C210.815 239.523 208.794 239.194 206.773 239.006C192.671 237.785 178.147 235.671 164.187 233.651L158.922 232.9L151.354 231.772C143.693 230.598 135.796 229.423 127.852 228.719C113.572 227.121 99.1733 226.854 84.8431 227.92C62.7046 230.452 41.7907 239.4 24.6774 253.663C25.1289 251.644 25.6939 249.652 26.3695 247.697ZM24.8184 430.102C23.7373 427.754 22.6562 425.405 21.6221 422.962L20.3529 419.768C19.4599 417.607 18.5668 415.399 17.7207 413.238C17.2977 412.158 16.9216 411.03 16.5456 409.903C15.2765 406.38 14.1013 402.81 12.8792 399.286L12.0802 396.75C11.4221 394.589 10.717 392.428 10.059 390.22C9.4009 388.012 9.21288 386.932 8.83684 385.523C8.46081 384.113 8.22579 382.939 7.99076 381.624C7.56772 379.369 7.19169 376.926 6.95666 374.812C6.95666 373.92 6.95666 373.027 6.72164 372.135C6.39261 368.377 6.15759 364.572 6.15759 360.767C6.15759 359.686 6.15759 358.559 6.15759 357.478C6.15759 353.532 6.34561 349.602 6.72164 345.688C6.72164 344.513 6.72164 343.339 7.05067 342.164C7.47371 337.984 7.99076 333.803 8.55482 329.716V329.152C8.55482 328.26 8.88385 327.414 9.02486 326.569C9.72993 322.576 10.623 318.677 11.6571 314.778C12.0802 313.275 12.5032 311.771 12.9262 310.08L14.4774 304.819L15.9345 300.121C18.5345 292.108 20.4528 283.889 21.6691 275.553C22.2331 271.138 22.5622 266.769 23.1262 262.4L27.4506 258.877C48.4616 242.389 69.7547 233.651 90.9067 232.853C110.026 232.49 129.135 233.969 147.97 237.268C159.016 239.053 170.297 240.604 181.155 241.966L203.576 245.207L208.277 245.959C213.342 246.883 218.46 247.495 223.6 247.791C226.844 247.791 229.006 248.683 229.429 249.952C229.852 251.22 228.912 252.488 226.797 254.226C223.875 256.491 220.724 258.443 217.396 260.051L216.127 260.756C207.103 265.438 197.7 269.351 188.018 272.453L185.245 273.392C165.374 280.583 145.901 288.831 126.912 298.101L122.541 300.168C110.824 305.608 100.026 312.834 90.5306 321.589C80.7229 330.763 72.1864 341.205 65.1482 352.64C64.2551 354.096 63.315 355.505 62.422 357.009C61.1058 359.263 59.7897 361.706 58.4736 364.008C57.8155 365.229 57.1105 366.451 56.4524 367.719C54.0082 372.417 51.7519 377.114 49.2137 382.563C48.6026 383.879 47.9916 385.194 47.3805 386.556L46.7695 387.918L43.4792 395.247L41.411 399.944L39.3898 404.642C37.8856 408.071 36.4285 411.547 34.9713 415.023C34.4543 416.339 33.9842 417.654 33.4672 418.969C32.2451 422.101 31.117 425.233 30.0829 428.364C29.7068 429.539 29.2838 430.713 28.9548 431.934C28.6257 433.156 28.3907 433.579 28.1557 434.424L27.6856 436.209C27.1216 435.082 26.6515 433.954 26.1345 432.874L24.8184 430.102ZM121.272 531.757C110.77 521.682 102.06 509.896 95.5131 496.901V496.526C94.8551 495.116 94.244 493.707 93.727 492.298C87.0053 474.635 89.7316 454.952 95.6541 437.431C102.188 418.124 114.456 401.588 121.084 382.469C125.126 371.148 126.536 353.298 111.683 350.479C95.9362 347.473 84.2791 372.276 79.1086 383.362L77.9804 385.805L74.9252 392.381L73.9851 394.401L73.045 396.421C71.2588 400.367 69.3786 404.595 67.5454 408.916L66.3703 411.688C65.3362 414.225 64.3335 416.793 63.362 419.392C62.845 420.848 62.328 422.257 61.8109 423.714C60.5574 427.253 59.4293 430.823 58.4266 434.424C58.1132 435.552 57.8155 436.679 57.5335 437.806C56.6874 441.095 55.9823 444.336 55.4183 447.624C55.4183 448.799 55.0423 449.973 54.9012 451.147C54.4262 454.541 54.1593 457.961 54.1022 461.388C54.1022 462.703 54.1022 463.972 54.1022 465.24C54.1484 468.328 54.4471 471.408 54.9953 474.447C54.9953 475.387 55.4183 476.279 55.6533 477.172C56.3232 479.9 57.2518 482.558 58.4266 485.111C56.1868 482.825 54.0836 480.409 52.128 477.876L50.2948 475.481C48.3833 472.85 46.5501 470.141 44.7953 467.354L42.9151 464.253C41.2543 461.498 39.6875 458.695 38.2146 455.845L36.6165 452.979L32.9031 446.262L31.869 444.336L30.929 442.645L30.0359 441.001C30.976 437.477 32.0571 434.001 33.2322 430.525C33.6552 429.257 34.1253 427.988 34.5953 426.72C35.7547 423.588 36.9925 420.457 38.3087 417.325L39.9068 413.379C41.552 409.527 43.2441 405.769 44.9363 402.011L47.0045 397.314L48.1796 394.777C49.7778 391.301 51.3289 388.012 52.8801 384.724L53.6791 382.939L54.6662 380.872C57.1105 375.564 59.3667 370.538 62.2339 365.84C62.845 364.713 63.5031 363.679 64.1611 362.599L65.0542 361.142C65.9473 359.639 66.8404 358.183 67.7805 356.727C75.8918 344.304 85.5415 332.956 96.5002 322.951L100.12 320.18C103.262 317.616 106.558 315.247 109.991 313.087C113.375 311.067 116.9 309.376 120.379 307.731C122.87 306.557 125.455 305.336 127.993 303.973C134.01 300.732 140.355 298.055 146.513 295.471C150.931 293.639 155.491 291.713 159.862 289.599C168.304 285.776 176.968 282.466 185.809 279.687C197.623 276.216 209.031 271.491 219.84 265.594L222.331 264.138C225.015 262.719 227.55 261.035 229.899 259.112C230.51 258.548 231.168 257.797 231.873 257.045C232.578 256.293 233.471 255.26 234.317 254.461C235.079 253.656 236.034 253.058 237.091 252.723C237.573 252.611 238.078 252.64 238.545 252.807C239.011 252.973 239.42 253.27 239.723 253.663C240.563 254.752 241.171 256.002 241.51 257.335C241.85 258.667 241.913 260.055 241.697 261.414C240.259 267.604 238.196 273.632 235.54 279.405C229.796 292.858 222.99 305.833 215.187 318.207C211.567 324.032 208.23 330.139 205.034 336.058C200.855 344.121 196.258 351.961 191.261 359.545C188.065 364.243 184.681 368.94 181.437 373.168C176.737 379.369 172.036 385.805 167.806 392.522C157.861 407.89 149.708 424.345 143.505 441.564C142.894 443.302 142.283 445.041 141.719 446.732C141.154 448.423 140.731 450.02 140.214 451.429C139.697 452.838 139.65 453.308 139.368 454.295L139.086 455.234C138.005 459.18 137.112 463.173 136.36 467.213C136.125 468.528 135.984 469.891 135.749 471.206C134.406 479.815 133.746 488.517 133.775 497.23C133.775 498.311 133.775 499.391 133.775 500.471C133.775 501.552 133.775 503.619 133.775 505.169C133.775 506.719 133.775 509.068 134.151 511.041C134.527 515.739 134.997 520.154 135.702 524.664C135.984 526.496 136.36 528.281 136.689 530.066C137.018 531.851 137.206 532.932 137.535 534.341V534.857C138.522 539.555 139.697 544.253 141.06 548.95V549.326L140.637 548.997C135.702 544.91 130.437 540.213 125.361 535.515C123.998 534.294 122.635 533.072 121.272 531.757ZM282.685 608.703L280.429 607.81C277.844 606.777 275.258 605.743 272.72 604.663L268.49 602.737L265.152 601.187L262.661 599.918C259.324 598.227 256.127 596.395 252.978 594.422L250.299 592.684C248.466 591.463 246.68 590.242 244.893 588.926L242.12 586.765C238.44 583.9 234.983 580.759 231.779 577.37C231.121 576.666 230.557 575.82 229.899 575.068C228.395 573.33 226.891 571.592 225.481 569.713C223.534 566.939 222.027 563.881 221.015 560.647C220.498 559.097 220.028 557.5 219.699 555.949C219.37 554.399 218.9 551.863 218.618 549.796C218.43 548.48 218.273 547.165 218.148 545.85C217.913 543.548 217.725 541.152 217.537 539.085C217.537 537.159 217.537 535.28 217.302 533.354C217.302 533.025 217.302 532.697 217.302 532.368C217.302 531.146 217.302 529.925 217.302 528.704C217.469 521.651 218.129 514.619 219.276 507.659C219.276 506.719 219.558 505.78 219.699 504.84C219.84 503.901 219.699 503.854 219.981 503.337C221.479 495.395 223.457 487.552 225.904 479.849L227.079 476.138L227.737 474.118L228.912 470.548C230.557 465.851 232.249 461.153 233.941 456.127L235.351 452.228C236.809 448.141 238.266 444.054 239.676 439.967C240.569 437.384 241.368 434.753 242.167 432.169C242.966 429.586 243.436 427.988 244.047 425.875V425.217C244.423 423.902 244.799 422.633 245.128 421.318C247.22 413.603 248.79 405.756 249.829 397.83C251.239 386.227 251.098 372.417 242.073 364.055C216.879 340.567 185.668 405.487 179.322 422.586C178.711 424.324 178.241 426.062 177.677 427.848C177.113 429.633 176.549 431.277 176.079 433.015L175.562 434.706C175.139 436.303 174.81 437.947 174.434 439.403C173.588 442.927 172.788 446.497 172.13 450.067C172.13 451.194 171.707 452.369 171.519 453.496C170.767 457.755 170.109 462.061 169.545 466.414C169.545 467.542 169.216 468.669 169.075 469.797V470.83C167.9 479.896 166.725 488.634 166.02 497.277C166.02 498.639 165.785 500.002 165.691 501.317C165.456 504.934 165.362 508.551 165.362 512.168C165.362 514.642 165.362 517.132 165.362 519.637C165.518 522.769 165.801 525.995 166.208 529.314C166.208 530.583 166.49 531.804 166.678 533.072V533.448C167.054 535.703 167.477 538.146 167.994 540.072C168.323 541.387 168.699 542.702 169.075 543.971C169.451 545.239 169.874 546.695 170.297 548.058C170.72 549.42 171.096 550.406 171.519 551.581C171.942 552.755 172.883 555.057 173.588 556.748C174.293 558.439 174.857 559.614 175.515 560.976C176.956 564.107 178.523 567.036 180.215 569.76L181.672 572.156C183.741 575.444 185.903 578.686 188.206 581.88L187.313 580.987C185.293 579.192 183.087 577.617 180.732 576.29L178.617 575.068L176.22 573.659L173.306 571.78L169.827 569.572L166.114 567.224C162.965 565.204 159.909 563.137 156.713 561.023C153.517 558.909 149.85 556.325 146.513 553.836V552.943C146.231 551.722 145.949 550.453 145.667 549.185C145.385 547.917 144.915 545.944 144.539 544.487C143.928 541.528 143.364 538.475 142.8 535.421V534.857C142.565 533.448 142.33 531.992 142.095 530.583C141.672 527.858 141.248 525.134 140.872 522.362C140.308 518.228 139.838 514 139.462 509.773C139.462 508.457 139.462 507.189 139.227 505.874C138.992 504.558 139.227 502.867 138.945 501.176C138.945 497.371 138.945 493.566 138.945 489.761C139.25 482.458 140.098 475.188 141.484 468.011C142.33 463.627 143.379 459.258 144.633 454.905C144.915 453.872 145.244 452.885 145.573 451.852C146.184 449.926 146.748 448 147.453 446.121L147.923 444.853C148.581 443.068 149.286 441.329 149.944 439.591C160.127 415.404 173.45 392.661 189.569 371.947C198.053 360.585 205.568 348.533 212.037 335.917C214.889 330.523 218.027 325.285 221.438 320.227C225.607 314.253 229.315 307.972 232.531 301.437C233.659 298.9 234.834 296.41 236.104 293.78C240.034 286.09 243.289 278.074 245.833 269.822C246.398 265.594 247.714 263.575 249.876 263.715C253.918 264.044 259.841 271.419 263.366 275.788L265.246 278.09L266.186 279.17C273.942 288.096 282.779 298.242 283.108 310.926C282.958 318.19 281.803 325.399 279.677 332.347L279.019 334.883C276.104 346.439 272.438 358.089 268.866 369.363L265.622 379.651C261.125 394.181 257.684 409.017 255.328 424.043C255.328 425.405 254.905 426.767 254.717 428.129C253.715 435.05 252.962 441.987 252.461 448.939C252.461 450.584 252.179 452.228 252.085 453.637C252.085 455.046 252.085 456.456 252.085 457.865C252.085 459.274 252.085 461.67 251.85 463.549V465.005C251.85 467.542 251.85 470.078 251.85 472.615C251.85 473.868 251.85 475.136 251.85 476.42C251.531 486.827 252.208 497.24 253.871 507.518C254.67 511.746 255.375 516.161 256.033 520.436L256.786 525.134V525.415C257.162 527.764 257.585 530.113 258.008 532.462C258.008 533.495 258.384 534.529 258.572 535.562C259.386 539.79 260.358 543.971 261.486 548.105V548.856C261.768 549.89 262.05 550.97 262.332 552.004L262.567 552.708C264.199 557.65 266.146 562.483 268.396 567.177L269.712 569.948L270.276 571.122L273.519 577.887L276.057 583.195L279.16 589.443C280.57 592.293 282.043 595.127 283.578 597.945L285.176 600.811C286.9 603.943 288.686 606.918 290.535 609.736C291.146 610.676 291.71 611.709 292.368 612.649L290.018 611.803L282.685 608.703ZM387.787 628.949L385.672 628.667C381.547 628.104 377.486 627.144 373.545 625.802L371.053 624.909C368.856 624.056 366.706 623.083 364.614 621.997C363.721 621.527 362.969 621.01 362.123 620.541C361.277 620.071 360.336 619.507 359.49 618.943C357.359 617.545 355.347 615.974 353.474 614.246C352.675 613.447 351.876 612.649 351.124 611.85C349.251 609.786 347.553 607.571 346.047 605.227C345.389 604.224 344.778 603.191 344.214 602.126C342.579 599.101 341.165 595.961 339.983 592.731C339.607 589.631 339.09 586.577 338.526 583.336C337.962 580.095 337.398 577.417 336.787 574.505C336.176 571.592 335.377 567.975 334.719 564.687C334.484 563.466 334.249 562.244 334.061 560.976C333.685 559.003 333.309 556.983 332.98 555.01C332.134 549.843 331.429 544.675 330.677 539.508C330.348 537.3 330.019 535.092 329.642 532.838C329.642 531.522 329.266 530.207 329.031 528.892C327.15 516.837 324.449 504.925 320.947 493.237C319.662 489.135 318.205 485.111 316.575 481.165C315.259 477.923 313.802 474.729 312.204 471.77C311.017 469.438 309.666 467.193 308.161 465.052C307.027 463.394 305.77 461.824 304.401 460.354C303.145 459.043 301.759 457.863 300.265 456.831C299.514 456.324 298.728 455.869 297.914 455.469C294.691 453.769 290.935 453.382 287.432 454.389C283.828 455.429 280.609 457.504 278.173 460.354C274.914 464.418 272.818 469.288 272.109 474.447C271.874 475.762 271.686 477.125 271.545 478.487C271.136 483.866 271.136 489.268 271.545 494.647V495.868C271.545 496.666 271.545 497.465 271.545 498.217C272.071 507.772 273.122 517.291 274.694 526.731C274.976 528.281 275.258 529.878 275.54 531.428L275.869 532.978C275.869 533.777 276.245 534.576 276.386 535.374C276.527 536.173 276.762 537.206 276.997 538.099C277.656 540.917 278.408 543.736 279.207 546.507C279.677 548.058 280.194 549.608 280.711 551.205V551.581L281.228 553.225C281.51 554.07 281.886 554.963 282.215 555.809L283.484 559.05C283.954 560.271 284.377 561.446 284.894 562.667C286.727 566.989 288.796 571.263 291.052 575.538L292.932 579.061C294.06 581.081 295.188 583.054 296.363 585.074L298.526 588.691C300.218 591.385 301.973 594.031 303.79 596.63L305.388 598.932C307.425 601.75 309.54 604.506 311.734 607.2L314.178 610.112C316.56 612.931 319.02 615.624 321.558 618.192L323.579 620.212C324.613 621.245 325.647 622.326 326.728 623.359L323.25 622.279L320.994 621.574L312.486 618.943L309.901 618.145L302.38 615.796L300.124 615.091L299.325 614.857L298.102 613.259C296.786 611.427 295.564 609.548 294.389 607.622C293.214 605.696 292.885 605.086 292.133 603.77C290.488 600.858 288.937 597.852 287.432 594.892L286.116 592.355L285.834 591.792C284.377 588.926 282.92 586.014 281.416 583.195L280.429 581.269C279.301 579.171 278.235 577.073 277.232 574.974C275.29 570.966 273.535 566.989 271.968 563.043C271.357 561.493 270.746 559.895 270.182 558.345C269.618 556.795 268.96 554.775 268.349 552.99C267.738 551.205 267.55 550.312 267.127 548.95C266.437 546.601 265.81 544.237 265.246 541.857C264.87 540.307 264.541 538.756 264.212 537.159L263.977 535.891C263.977 535.233 263.695 534.576 263.554 533.871V532.885C263.225 531.052 262.943 529.314 262.661 527.482C262.379 525.65 262.097 524.241 261.862 522.785C261.627 521.329 261.251 518.416 260.922 516.208C260.123 510.289 259.418 504.464 258.901 498.78C258.525 494.647 258.227 490.56 258.008 486.52C258.008 483.466 257.773 480.413 257.679 477.407C257.679 477.407 257.679 477.078 257.679 476.89C257.679 475.575 257.679 474.306 257.679 472.991C257.679 468.012 257.679 463.079 258.008 458.194C258.008 456.784 258.008 455.375 258.008 453.966C258.29 449.832 258.619 445.698 259.042 441.611V440.813C259.277 438.605 259.653 436.35 259.935 434.142C260.217 431.934 260.405 430.525 260.687 428.693C260.969 426.861 261.157 425.969 261.439 424.606C266.303 399.856 272.852 375.466 281.04 351.606L282.873 346.016C284.988 339.581 287.197 332.91 288.702 326.099C288.702 325.347 288.984 324.22 289.172 322.904C289.207 318.833 290.326 314.844 292.415 311.349C293.449 310.362 294.812 310.503 296.504 311.771C300.309 314.822 303.776 318.271 306.845 322.059C308.302 323.75 309.854 325.488 311.546 327.038C314.413 330.045 317.468 332.957 320.477 335.823C326.786 341.578 332.589 347.865 337.821 354.613C344.167 363.303 345.389 374.296 345.953 383.973C346.111 393.802 345.069 403.614 342.851 413.191C342.428 415.352 342.052 417.56 341.676 419.721L341.394 421.271C341.394 422.07 341.159 422.915 341.018 423.714C340.689 425.781 340.359 427.801 340.077 429.867C340.077 431.042 339.795 432.169 339.654 433.344C338.949 438.887 338.432 444.383 338.103 449.879C338.103 451.57 338.103 453.214 337.868 454.905C337.868 457.88 337.868 460.856 337.868 463.831C337.868 464.253 337.868 464.723 337.868 465.146C337.868 465.569 337.868 466.461 337.868 467.072C337.868 467.683 337.868 469.703 337.868 471.018C337.868 475.715 338.15 480.789 338.526 485.721C338.526 487.694 338.855 489.667 339.043 491.64C339.043 492.533 339.043 493.425 339.043 494.271C339.466 498.452 340.077 502.585 340.783 506.719C341.206 509.209 341.629 511.699 342.146 514.141C343.493 520.718 345.17 527.247 347.175 533.73C347.692 535.421 348.209 537.112 348.773 538.756C350.936 545.192 353.474 551.628 356.294 558.016L357.845 561.493L359.02 564.123L361.229 568.821L362.875 572.203C364.316 575.115 365.773 577.981 367.246 580.799L369.361 584.839C371.68 589.224 374.03 593.514 376.412 597.711L377.258 599.167L378.48 601.375L381.394 606.73C383.463 610.676 385.578 614.669 387.881 618.333C388.492 619.319 389.103 620.306 389.761 621.245C391.5 624.158 393.193 626.976 394.979 629.654C392.597 629.529 390.2 629.294 387.787 628.949ZM479.446 603.864L476.626 604.945L465.344 609.642L462.571 610.77L453.17 614.669L450.209 615.843L442.547 618.85L437.142 620.541L434.133 621.574C430.326 622.889 426.519 624.111 422.664 625.191L420.079 625.896C417.353 626.585 414.627 627.18 411.9 627.681L409.08 628.198C405.924 628.787 402.739 629.211 399.538 629.466L398.739 628.198L396.906 625.379C395.919 623.923 394.932 622.42 393.992 620.916C393.052 619.413 392.064 617.581 391.124 615.937C390.184 614.293 389.761 613.588 389.103 612.367C387.27 609.032 385.484 605.649 383.792 602.314L380.736 596.583L379.89 594.986L377.916 591.134C375.519 586.436 373.216 582.021 371.194 577.699L369.173 573.471C367.716 570.371 366.306 567.271 364.943 564.076L363.345 560.412C362.687 558.909 362.029 557.359 361.371 555.715C360.712 554.07 360.618 553.742 360.195 552.755L358.738 549.091C355.906 541.695 353.474 534.153 351.453 526.496C350.888 524.288 350.324 522.08 349.807 519.872C347.643 510.381 346.073 500.763 345.107 491.076C345.107 489.573 344.825 488.07 344.731 486.379C344.637 484.688 344.355 482.01 344.214 479.802C344.073 477.594 344.214 474.4 343.932 471.723C343.932 470.407 343.932 469.092 343.932 467.777C343.932 467.495 343.932 467.213 343.932 466.884C343.932 465.616 343.932 464.347 343.932 463.079C343.932 461.811 343.932 460.073 343.932 458.382C343.932 456.69 343.932 456.784 343.932 455.939C344.089 452.275 344.324 448.658 344.637 445.087C344.637 443.161 344.966 441.283 345.154 439.403C345.671 434.706 346.235 430.008 346.893 425.311C347.128 423.526 347.41 421.741 347.692 420.003C348.679 413.614 349.807 407.554 350.889 401.964C352.121 395.78 352.642 389.476 352.44 383.174C352.361 382.099 352.204 381.031 351.97 379.98C351.359 376.832 350.559 372.557 352.299 370.913L352.91 370.538C355.542 369.269 358.503 373.215 360.43 375.799L361.512 377.208C364.191 380.449 367.152 383.456 370.019 386.603L374.297 391.019C377.258 394.166 380.313 397.314 383.275 400.414C387.975 405.111 392.676 410.232 397.376 415.352L397.846 415.916C399.621 417.934 401.196 420.121 402.546 422.445C404.138 425.183 405.311 428.144 406.025 431.23C406.563 433.554 406.8 435.938 406.73 438.323C406.73 445.698 406.73 452.416 406.73 459.697C406.73 460.965 406.73 462.187 406.73 463.455C406.73 464.723 406.73 466.273 407.012 467.73C407.247 470.924 407.576 474.071 408.093 477.125C408.093 478.393 408.516 479.614 408.751 480.883C408.986 482.151 408.751 482.245 409.127 482.95C409.503 483.654 409.738 485.58 410.067 486.896C411.383 492.383 413.047 497.78 415.05 503.055C415.661 504.605 416.319 506.202 416.977 507.753C418.152 510.571 419.421 513.437 420.784 516.255L421.16 516.96C422.288 519.262 423.51 521.657 424.733 523.677C427.13 527.952 429.762 532.086 432.488 536.173L434.886 539.649C438.035 544.112 441.278 548.433 444.615 552.708L446.543 555.198L453.029 563.7L454.11 565.11L456.226 567.834L458.623 570.888C461.286 574.301 463.825 577.636 466.238 580.893L468.494 583.9C471.643 588.222 474.604 592.402 477.425 596.536L479.775 600.012L481.843 603.113L479.446 603.864ZM578.766 597.805L575.194 596.63C571.576 595.561 567.905 594.683 564.195 594L561.14 593.436C556.638 592.737 552.104 592.267 547.555 592.027H544.735H542.62H539.471C534.159 592.027 528.895 592.027 523.865 592.637L521.374 592.966C517.613 593.389 513.9 594 510.187 594.798L507.319 595.409C502.901 596.442 498.436 597.617 494.064 598.979L491.573 599.824C489.035 600.67 486.496 601.516 483.958 602.455L480.245 596.207L477.989 592.449C475.027 587.752 472.16 583.054 469.293 578.779L467.037 575.397C464.357 571.451 461.678 567.74 458.952 564.123L457.824 562.573L456.555 560.882C453.687 557.077 450.82 553.319 448.094 549.467L446.026 546.601C442.359 541.434 438.881 536.22 435.591 530.865C434.651 529.314 433.757 527.764 432.864 526.167C429.946 521.07 427.31 515.816 424.968 510.43L424.169 508.692C423.745 507.706 423.416 506.766 423.04 505.78C420.993 500.479 419.298 495.049 417.964 489.526C417.463 487.428 417.008 485.361 416.601 483.325C415.802 479.145 415.144 475.058 414.674 471.065C414.674 469.327 414.251 467.542 414.11 465.851C413.687 461.153 413.405 456.456 413.216 452.275C413.216 451.476 413.216 450.631 413.216 449.785C413.216 448 413.451 446.168 413.733 444.242C413.733 443.349 413.733 442.457 414.063 441.564C414.085 441.472 414.085 441.375 414.063 441.283C414.119 439.869 414.575 438.501 415.379 437.337C415.624 437.135 415.915 436.995 416.226 436.93C416.537 436.865 416.859 436.875 417.165 436.961L418.199 437.243L420.643 439.779L422.758 441.94L426.378 445.651L428.399 447.718L434.086 453.543L436.531 456.033L443.91 463.549L446.026 465.71L450.726 470.407L452.324 472.004L453.17 472.897L454.627 474.353L456.085 475.809L457.824 477.548L459.14 478.863L461.349 481.071L469.293 489.009L471.079 490.795L475.027 494.741L477.237 496.948L481.937 501.646L484.334 504.042L489.881 509.538L490.21 509.867C497.26 516.913 504.311 523.959 511.691 530.818L517.707 536.643L524.147 542.796L525.369 543.971L541.257 559.097L543.137 560.882L546.239 563.841L553.478 570.747L555.499 572.673L566.592 583.289L568.895 585.497L576.933 593.295L579.847 596.113L583.185 599.308C581.587 598.744 580.176 598.274 578.766 597.805ZM580.693 551.769C580.317 553.319 580.035 554.869 579.753 556.466C577.596 566.356 577.596 576.594 579.753 586.483C580.234 588.423 580.814 590.335 581.493 592.214L581.728 592.966L581.305 592.59L578.343 589.678C575.664 587.047 572.985 584.417 570.305 581.88L567.908 579.578L565.323 577.088L556.768 568.868L554.653 566.801L550.658 562.902L545.957 558.204L545.299 557.547L542.949 555.198L527.202 539.508L521.75 533.777L501.397 513.343L495.991 507.894L494.534 506.39L489.223 500.988L487.014 498.78L482.313 493.801L481.42 492.908L479.211 490.654L475.309 486.755L473.617 485.017L465.109 476.373L463.041 474.259L461.161 472.333L459.516 470.689L458.153 469.327L456.837 467.965L455.144 466.226L453.358 464.441L448.141 459.133L446.073 457.019L444.192 455.657C443.346 454.811 443.205 454.342 443.205 454.154C443.169 454.063 443.169 453.962 443.205 453.872C444.323 453.366 445.567 453.202 446.778 453.402H448.329H449.269L453.076 454.154L456.884 454.905L458.952 455.234L461.49 455.657L463.511 455.986L465.909 456.362L468.071 456.737L471.643 457.395H472.536L477.566 458.569L480.292 459.18C484.992 460.276 489.693 461.435 494.393 462.656L497.025 463.314L502.948 465.052L505.768 465.804L511.033 467.26L512.725 467.73L520.857 470.031L525.557 471.3L526.732 471.629L527.813 471.91L535.851 474.071L537.872 474.588L539.941 475.152L542.949 475.95L545.44 476.608L551.034 478.111L553.431 478.816L561.093 481.024L563.913 481.963C567.047 483.028 570.18 484.171 573.314 485.392L575.57 486.285C577.215 486.943 578.907 487.553 580.27 488.305L582.292 489.244L584.783 490.419L594.184 494.834L595.97 495.727L601.469 498.452L600.623 500.425C596.675 509.397 592.351 518.698 588.543 528.187L587.18 531.71C586.428 533.683 585.707 535.656 585.018 537.629C584.642 538.709 584.266 539.79 583.89 540.917C582.527 544.581 581.493 548.198 580.646 551.769H580.693ZM635.501 402.058C635.401 414.058 632.824 425.908 627.933 436.867C626.429 440.672 624.784 444.43 623.233 448.141L621.54 451.852L618.861 457.583L615.759 463.69L614.866 465.569C610.541 475.246 606.734 485.111 602.598 494.834L598.884 492.955L597.38 492.204L595.594 491.311L586.992 486.896L584.924 485.815H584.595C582.245 484.547 579.894 483.419 577.403 482.292L575.241 481.353C572.107 479.975 568.974 478.691 565.84 477.501L563.02 476.467L556.486 474.212L554.089 473.414L549.388 471.863L546.991 471.112L541.774 469.562L539.753 468.951L537.261 468.199L531.151 466.32L529.224 465.757L516.297 462.046L514.511 461.529L510.234 460.354L507.507 459.65L501.867 458.194L499.188 457.489C495.051 456.456 490.899 455.469 486.732 454.53L483.911 453.872L476.72 452.463L472.865 451.758L469.481 450.959L466.849 450.49H465.956L461.772 449.738L459.469 449.315L454.768 448.517L452.606 448.141L451.243 447.906L448.846 447.436C445.697 446.826 442.5 446.121 439.445 445.228H438.74C437.782 444.916 436.841 444.555 435.92 444.148C433.892 443.257 431.956 442.172 430.138 440.907L428.164 439.497C426.754 438.417 425.391 437.196 424.075 435.974L421.912 433.813L418.951 430.619L417.071 428.505L414.956 426.109L411.759 422.445L410.772 421.365L408.563 418.969L406.871 417.231L404.239 414.178C396.812 406.427 390.137 399.146 383.369 392.146L379.937 388.482C373.169 381.201 366.118 373.685 358.879 366.639L357.892 365.699C355.166 363.115 349.478 357.713 349.525 354.472C349.525 352.828 351.124 351.935 354.226 351.653C358.315 351.278 362.452 350.808 366.494 350.291L375.613 349.164C387.505 347.707 399.82 346.204 412.041 345.547C441.701 343.949 472.019 343.762 502.243 345.03C518.315 345.297 534.311 347.297 549.953 350.996C561.563 354.049 573.126 357.995 584.313 361.8L589.436 363.538C603.538 368.236 617.921 373.826 631.27 379.087C633.396 386.595 634.812 394.286 635.501 402.058ZM645.184 262.259C646.272 268.912 646.932 275.628 647.158 282.365C647.158 283.962 647.158 285.7 647.393 287.391C646.887 286.986 646.29 286.712 645.654 286.592C644.741 286.013 643.782 285.51 642.786 285.089C638.556 282.975 633.762 281.801 629.39 279.875C619.568 275.525 609.49 271.776 599.213 268.648C579.503 263.079 559.362 259.167 539 256.951C530.518 255.901 521.977 255.399 513.43 255.448C504.969 255.448 494.628 254.508 486.355 257.609C483.911 258.576 481.579 259.805 479.399 261.273H479.023C475.519 262.507 472.488 264.805 470.356 267.846C468.223 270.887 467.096 274.518 467.131 278.231C467.131 278.513 467.131 278.795 467.131 279.029C467.131 279.264 467.131 279.875 467.131 280.298V280.533C467.619 283.317 468.606 285.991 470.045 288.425C478.506 304.302 495.051 305.993 510.798 306.886C534.247 308.494 557.375 313.234 579.565 320.978C603.068 328.964 625.066 346.768 630.142 372.933V373.309C616.84 368.001 602.598 362.411 588.308 357.384C562.703 347.554 535.768 341.616 508.401 339.769C477.19 338.312 446.731 338.265 417.87 339.769C403.769 340.473 388.68 341.93 371.947 344.466L366.071 345.359C361.07 346.27 356.013 346.851 350.936 347.097C336.505 347.473 325.647 334.883 316.105 323.609C313.802 320.932 311.64 318.442 309.525 316.187C304.824 311.489 300.735 306.792 296.692 302.517L290.488 295.753L289.971 295.189C287.761 292.793 285.035 289.787 285.27 287.156C285.353 286.302 285.669 285.487 286.183 284.8C286.697 284.113 287.389 283.579 288.185 283.257C291.238 281.748 294.53 280.779 297.914 280.392C299.278 280.157 300.594 279.922 301.863 279.64C306.344 278.401 310.728 276.83 314.977 274.943L316.763 274.238C326.164 270.48 335.894 266.581 345.201 262.823L358.597 257.421C365.272 254.743 372.229 252.347 378.95 250.046C386.565 247.415 394.415 244.69 401.982 241.543C417.214 235.223 432.934 230.149 448.987 226.37C505.726 213.273 564.338 210.331 622.104 217.68C625.771 218.149 629.39 218.713 633.009 219.371C638.702 233.165 642.772 247.573 645.137 262.306L645.184 262.259ZM542.62 127.111C519.776 125.89 497.167 129.789 474.745 133.828C453.969 137.54 430.42 138.526 411.947 149.753C399.538 157.363 390.137 170.422 398.222 184.797C405.649 197.856 422.852 202.413 436.296 203.164C457.636 204.339 478.6 196.869 498.389 189.306C519.917 181.086 541.163 170.939 564.571 171.456C577.862 171.748 590.835 175.575 602.154 182.544C613.473 189.512 622.728 199.371 628.967 211.103C629.343 211.808 629.672 212.512 630.001 213.217L620.13 211.385C606.443 208.824 592.55 207.519 578.625 207.486C566.451 207.486 554.418 208.097 543.184 208.566C500.222 210.492 454.439 214.532 411.007 231.115L394.838 237.409C385.437 241.026 375.66 244.784 366.071 248.401C357.516 251.596 348.867 254.978 340.501 258.266C331.1 261.93 321.417 265.735 311.828 269.306L307.127 271.138C296.692 275.271 283.625 280.533 274.224 274.943C268.96 271.842 260.405 263.903 258.713 257.609C258.441 256.093 258.616 254.531 259.217 253.113C259.818 251.695 260.819 250.483 262.097 249.623L264.024 247.932L264.964 247.133L266.468 245.912C267.221 245.301 268.02 244.643 268.819 243.939C269.574 243.265 270.252 242.508 270.84 241.684C278.289 234.13 285.289 226.146 291.804 217.774C293.449 215.707 294.765 214.062 295.517 213.076L304.119 203.681C321.934 183.716 340.359 163.094 360.524 144.774C363.721 141.814 366.964 138.949 369.925 136.271C383.335 124.52 397.848 114.09 413.263 105.127C421.724 100.429 430.561 95.7314 439.116 91.5976C446.59 87.8396 454.298 83.9876 461.725 79.8537L469.481 75.532L475.544 72.1498L481.514 68.8615C490.619 63.76 500.039 59.2412 509.717 55.3326C513.947 58.2451 518.146 61.2202 522.314 64.2579C545.966 81.4351 567.937 100.813 587.932 122.132C593.552 128.454 598.749 135.139 603.491 142.143L605.183 144.539C597.082 139.863 588.589 135.903 579.8 132.701C577.262 131.856 574.677 131.245 572.045 130.634C568.347 129.789 564.618 129.1 560.858 128.567C554.653 127.863 548.683 127.44 542.62 127.111Z" fill="#80CEE2"/>
</g>
<defs>
<clipPath id="clip0">
<rect width="650.26" height="636" fill="white"/>
</clipPath>
</defs>
</svg>
