<svg width="24" height="24" viewBox="0 0 24 24" fill="none" xmlns="http://www.w3.org/2000/svg">
<path d="M22.0046 23.5C22.1353 22.3339 22.3685 19.8845 20.6526 18.356C19.0802 16.9522 16.964 17.0025 15.5797 15.785C14.1735 14.548 13.9441 13.0287 15.0475 11.2945C15.926 9.91351 16.6073 7.91063 16.6073 6.19927C16.6073 3.3287 14.5979 1 11.9151 1C9.23241 1 7.22295 3.3287 7.22295 6.19927C7.22295 7.91406 7.90424 9.91237 8.7828 11.2945C9.88617 13.0287 9.65678 14.548 8.25061 15.785C6.86509 17.0025 4.75012 16.9522 3.17764 18.356C1.45721 19.8868 1.87498 22.3328 2.00458 23.5M0.50375 19.5C0.50375 17.5736 0.197024 16.6332 1.51029 15.4443C2.71459 14.3548 3.72964 14.6361 4.79057 13.6918C5.8515 12.7475 6.0442 11.9073 5.19889 10.5606C4.52563 9.48824 3.5 7.93121 3.5 6.60395C3.5 4.37472 5.44581 3 7.5 3M23.5 19.5C23.4985 17.5736 23.5695 16.6332 22.2562 15.4443C21.0519 14.3548 20.0369 14.6361 18.9759 13.6918C17.915 12.7475 17.7223 11.9073 18.5676 10.5606C19.2409 9.48824 20 7.93121 20 6.60395C20 4.37472 18.0542 3 16 3" stroke="#667A7F" stroke-linecap="round" stroke-linejoin="round"/>
</svg>
