<svg width="32" height="32" viewBox="0 0 32 32" fill="none" xmlns="http://www.w3.org/2000/svg">
<path d="M23.3112 21.8668V29.6584M20.0132 23.8147L26.6196 27.7105M20.0132 27.7105L26.6196 23.8147M15.8544 20.2643C17.2509 21.5446 17.0818 23.5936 16.246 24.755C15.4101 25.9163 15.1803 27.7031 16.5294 29.1266M10.8702 20.9045C12.7903 22.4007 12.5573 24.795 11.4092 26.1522C10.2611 27.5094 9.9426 29.6026 11.7988 31.2619M5.66853 20.2643C7.06402 21.5446 6.89499 23.5936 6.06017 24.755C5.22536 25.9163 4.99449 27.7031 6.3436 29.1266M27.8829 9.12137H4.11563M27.8829 12.5233H4.11563M3.05613 0.737061H28.9424C29.5612 0.739004 30.1541 0.990999 30.5917 1.43802C31.0292 1.88504 31.2759 2.49077 31.2778 3.12295V13.7289C31.2759 14.3613 31.0291 14.9672 30.5913 15.4142C30.1535 15.8613 29.5603 16.1131 28.9413 16.1148H3.05613C2.43733 16.1128 1.8444 15.8609 1.40684 15.4138C0.969271 14.9668 0.722606 14.3611 0.720703 13.7289V3.12295C0.722606 2.49077 0.969271 1.88504 1.40684 1.43802C1.8444 0.990999 2.43733 0.739004 3.05613 0.737061Z" stroke="#009DC4" stroke-linecap="round" stroke-linejoin="round"/>
</svg>
