<svg width="63" height="64" viewBox="0 0 63 64" fill="none" xmlns="http://www.w3.org/2000/svg">
<path d="M3.7578 57.2698L26.3752 13.8201L43.1478 47.8372M38.2041 36.82L43.0121 30.8349L50.8905 42.9989L54.1799 39.4833L61.7678 53.0686M49.3266 1.25769V4.91155M40.455 4.98154L42.9582 7.56401M36.7202 14.0929H40.2619M40.3298 23.2455L42.8347 20.663M49.1614 27.1003V23.4447M58.033 23.3747L55.5298 20.7904M61.7608 14.2634H58.2296M58.1617 5.11076L55.6568 7.69322M29.8543 52.008C29.762 51.7401 29.7149 51.4578 29.7151 51.1735C29.7179 50.508 29.9753 49.8706 30.4315 49.4C30.8876 48.9294 31.5054 48.6638 32.1505 48.661H45.1448C45.7899 48.6638 46.4077 48.9294 46.8638 49.4C47.3199 49.8706 47.5774 50.508 47.5802 51.1735C47.5805 51.5663 47.4911 51.9536 47.3192 52.3041H52.9727C54.4687 52.3041 56.2048 53.5603 56.2048 55.1091C56.2048 56.6507 54.4652 57.9141 52.9727 57.9141H49.4345C49.838 58.1631 50.1721 58.5156 50.4044 58.9373C50.6366 59.3591 50.7592 59.8356 50.76 60.3207C50.759 60.8112 50.6336 61.293 50.3961 61.718C50.1587 62.143 49.8176 62.4966 49.4067 62.7434H16.7382C10.5768 62.6088 11.9875 56.543 16.6895 56.6758H20.5547C20.4809 56.3968 20.4434 56.1089 20.4434 55.8197C20.4434 54.0126 21.8768 52.0062 23.6268 52.0062L29.8543 52.008ZM11.0221 42.789L3.7578 42.7226C3.0742 42.716 2.42039 42.4329 1.93699 41.9342C1.45358 41.4355 1.1792 40.761 1.17285 40.0557C1.17469 39.349 1.44762 38.6718 1.93199 38.1721C2.41637 37.6724 3.07279 37.3908 3.7578 37.3889H7.60913C7.22569 37.152 6.90819 36.8168 6.6875 36.4159C6.46682 36.0149 6.35044 35.5619 6.34971 35.1008C6.352 34.3941 6.62502 33.7169 7.10925 33.217C7.59347 32.7171 8.24963 32.435 8.93465 32.4322H16.6843L11.0221 42.789ZM49.2431 8.97459C50.2409 8.97459 51.2162 9.27982 52.0458 9.85169C52.8754 10.4236 53.522 11.2364 53.9038 12.1874C54.2856 13.1383 54.3855 14.1848 54.1909 15.1943C53.9962 16.2039 53.5158 17.1312 52.8103 17.8591C52.1047 18.5869 51.2059 19.0826 50.2273 19.2834C49.2487 19.4842 48.2344 19.3812 47.3126 18.9873C46.3909 18.5934 45.603 17.9263 45.0487 17.0704C44.4944 16.2146 44.1985 15.2083 44.1985 14.179C44.1985 12.7987 44.73 11.4749 45.676 10.4989C46.6221 9.52291 47.9052 8.97459 49.2431 8.97459Z" stroke="#009DC4" stroke-width="2" stroke-linecap="round" stroke-linejoin="round"/>
</svg>
