<svg width="24" height="24" viewBox="0 0 24 24" fill="none" xmlns="http://www.w3.org/2000/svg">
<path d="M1.92599 14.4896C1.92599 18.5676 3.69691 22.1589 7.5684 22.1589H16.4312C20.3061 22.1589 21.9127 18.5696 21.9127 14.4896H1.92599ZM1.92599 14.4896L2.0302 3.34267C2.03361 2.58129 2.34327 1.85206 2.8918 1.31368C3.44032 0.775297 4.1833 0.47136 4.95902 0.468018C5.73486 0.47101 6.47805 0.774836 7.02665 1.31329C7.57525 1.85174 7.8848 2.58119 7.88785 3.34267M23.523 14.4896H0.476562M20.1909 23.5321L18.981 21.5M3.80861 23.5321L4.99411 21.5M5.53049 7.37387L12.3567 4.93509M15.8202 20.7336C18.3948 20.7336 19.834 18.8698 20.2863 16.3829M6.26053 7.11305C5.79124 5.85021 6.20343 4.32406 7.21967 3.96105L8.8816 3.3674C9.89716 3.0044 11.1655 3.92815 11.6348 5.193L6.26053 7.11305Z" stroke="#667A7F" stroke-linecap="round" stroke-linejoin="round"/>
</svg>
