<svg width="64" height="64" viewBox="0 0 64 64" fill="none" xmlns="http://www.w3.org/2000/svg">
<path d="M57.3781 26.0043V5.81492C57.3738 4.63063 56.9364 3.49615 56.1612 2.65872C55.3859 1.82129 54.3356 1.34881 53.2393 1.34424H10.8549C9.75636 1.34474 8.70281 1.81555 7.92503 2.65353C7.14726 3.4915 6.70867 4.62831 6.70537 5.81492V26.012M62.756 47.2468V62.7842H53.6499V55.2932H10.4514V62.7746H1.34527V47.2468H62.756ZM51.843 25.0593V21.2096C51.8388 19.9021 51.356 18.6494 50.5001 17.7248C49.6441 16.8002 48.4844 16.2787 47.2739 16.2741H36.9179C35.7089 16.2822 34.5517 16.805 33.6973 17.729C32.8429 18.653 32.3603 19.9037 32.3542 21.2096V23.8616L51.843 25.0593ZM31.7364 23.8616V21.2096C31.7317 19.9022 31.2488 18.6498 30.3929 17.7253C29.5371 16.8008 28.3776 16.2792 27.1673 16.2741H16.8113C15.6008 16.2792 14.4412 16.8008 13.585 17.7252C12.7289 18.6496 12.2456 19.902 12.2404 21.2096V25.2599L31.7364 23.8616ZM6.65002 26.1644C22.6874 23.3196 47.3757 23.6359 57.5602 26.1644L62.8471 46.9729H1.24707L6.65002 26.1644Z" stroke="#009DC4" stroke-width="2" stroke-linecap="round" stroke-linejoin="round"/>
</svg>
