<svg width="98" height="98" viewBox="0 0 98 98" fill="none" xmlns="http://www.w3.org/2000/svg">
<path d="M62.4825 46.0023V35.9076C62.4802 35.3154 62.2479 34.7482 61.836 34.3295C61.4242 33.9108 60.8662 33.6745 60.2838 33.6723H37.7671C37.1835 33.6725 36.6238 33.9079 36.2106 34.3269C35.7974 34.7459 35.5644 35.3143 35.5626 35.9076V46.0062M52.0705 45.0976L49.1886 44.9309V43.6049C49.1918 42.952 49.4482 42.3266 49.9021 41.8646C50.356 41.4026 50.9708 41.1413 51.6131 41.1372H57.1146C57.7577 41.1395 58.3738 41.4002 58.8286 41.8625C59.2833 42.3248 59.5397 42.9512 59.542 43.6049V45.5298L58.7221 45.4823M52.0705 45.0976L58.7221 45.4823M52.0705 45.0976C49.9812 45.054 47.7866 45.0702 45.6059 45.1506M52.0705 45.0976C54.4908 45.1481 56.7698 45.2787 58.7221 45.4823M58.7221 45.4823C60.2317 45.6398 61.546 45.8409 62.5793 46.0823L65.3879 56.4866H32.6629L35.5332 46.0823C36.7558 45.8782 38.0729 45.7067 39.4484 45.5663M39.4484 45.5663L38.5031 45.6301V43.6049C38.5059 42.9512 38.7626 42.325 39.2175 41.8627C39.6723 41.4005 40.2883 41.1397 40.9314 41.1372H46.433C47.076 41.1397 47.692 41.4006 48.1466 41.8628C48.6013 42.325 48.8579 42.9512 48.8604 43.6049V44.9309L45.6059 45.1506M39.4484 45.5663L45.6059 45.1506M39.4484 45.5663C41.417 45.3653 43.505 45.2281 45.6059 45.1506M97 49C97 75.5097 75.5097 97 49 97C22.4903 97 1 75.5097 1 49C1 22.4903 22.4903 1 49 1C75.5097 1 97 22.4903 97 49ZM65.3395 56.6235V64.3923H60.5019V60.6468H37.5527V64.3874H32.7151V56.6235H65.3395Z" stroke="#009DC4" stroke-width="1.5" stroke-linecap="round" stroke-linejoin="round"/>
</svg>
