<svg width="83" height="64" viewBox="0 0 83 64" fill="none" xmlns="http://www.w3.org/2000/svg">
<path d="M66.2002 47.0318L59.8984 21.5219M59.8984 21.5219L58.3789 5.78847L49.9384 5.43884L45.5732 1.52734M59.8984 21.5219L43.0569 42.5588M59.8984 21.5219H29.6144L16.1271 47.0318H37.4849M17.0282 9.34816H33.9576M23.5958 9.34816L38.9991 41.9906M16.868 31.4077C25.3348 31.4077 32.1988 38.3544 32.1988 46.9226C32.1988 55.4907 25.3348 62.4375 16.868 62.4375C8.40108 62.4375 1.53711 55.5017 1.53711 46.9226C1.53711 38.3435 8.40108 31.4077 16.868 31.4077ZM65.8731 31.4383C68.9565 31.4383 71.9706 32.3482 74.5344 34.053C77.0981 35.7578 79.0963 38.1809 80.2763 41.0159C81.4563 43.8509 81.765 46.9704 81.1635 49.98C80.5619 52.9896 79.0771 55.7541 76.8968 57.9239C74.7165 60.0937 71.9387 61.5713 68.9145 62.17C65.8904 62.7686 62.7558 62.4613 59.9071 61.2871C57.0584 60.1128 54.6236 58.1242 52.9105 55.5728C51.1975 53.0214 50.2831 50.0217 50.2831 46.9532C50.2831 42.8384 51.9256 38.8921 54.8493 35.9825C57.773 33.0729 61.7384 31.4383 65.8731 31.4383ZM40.9621 42.2856C41.6333 42.2856 42.2895 42.4836 42.8476 42.8547C43.4058 43.2257 43.8409 43.753 44.0979 44.3701C44.355 44.9871 44.4225 45.6662 44.2919 46.3214C44.1612 46.9766 43.8384 47.5786 43.364 48.0512C42.8897 48.5238 42.2853 48.8459 41.6271 48.9768C40.9689 49.1076 40.2864 49.0413 39.6661 48.7863C39.0457 48.5313 38.5152 48.099 38.1417 47.544C37.7681 46.989 37.5683 46.3363 37.5674 45.6683C37.5674 44.7723 37.9251 43.913 38.5617 43.2795C39.1983 42.6459 40.0618 42.29 40.9621 42.29V42.2856Z" stroke="#00566B" stroke-width="2" stroke-linecap="round" stroke-linejoin="round"/>
</svg>
