<svg width="64" height="64" viewBox="0 0 64 64" fill="none" xmlns="http://www.w3.org/2000/svg">
<path d="M31.5278 32.5028C35.4694 32.5028 38.699 29.8777 38.699 26.676V19.8698C38.699 16.6681 35.4747 14.0413 31.5278 14.0413H24.9138C20.7155 14.0413 18.015 16.589 18.015 19.9296V50.887L18.0115 32.5028H31.5278ZM31.5278 32.5028C35.4747 32.5028 38.699 35.1296 38.699 38.3314V45.1375C38.699 48.3393 35.4694 50.9643 31.5278 50.9643H18.0115M56.7969 1.23071C59.7856 1.23071 62.7744 3.84346 62.7744 7.20874V56.7912C62.7803 57.5778 62.6296 58.3578 62.3313 59.0857C62.033 59.8137 61.5929 60.475 61.0367 61.0313C60.4804 61.5876 59.8192 62.0277 59.0913 62.326C58.3634 62.6244 57.5835 62.775 56.7969 62.7692L1.24102 62.7446C1.24102 62.7446 1.23047 61.6632 1.23047 60.3076V7.38456C1.23047 4.19511 4.23681 1.23071 7.208 1.23071H56.7969ZM45.4378 45.9199C45.9364 45.9199 46.4239 46.0678 46.8385 46.3449C47.2531 46.6219 47.5762 47.0157 47.767 47.4764C47.9578 47.9371 48.0078 48.4441 47.9105 48.9331C47.8132 49.4222 47.5731 49.8715 47.2205 50.2241C46.8679 50.5767 46.4187 50.8169 45.9297 50.9141C45.4406 51.0114 44.9337 50.9615 44.473 50.7707C44.0124 50.5798 43.6186 50.2567 43.3416 49.842C43.0646 49.4274 42.9167 48.9399 42.9167 48.4413C42.9167 47.7726 43.1823 47.1313 43.6551 46.6584C44.1279 46.1856 44.7692 45.9199 45.4378 45.9199Z" stroke="#BF885E" stroke-width="2" stroke-linecap="round" stroke-linejoin="round"/>
</svg>
