<svg width="98" height="98" viewBox="0 0 98 98" fill="none" xmlns="http://www.w3.org/2000/svg">
<path d="M47.8341 49.0007C51.0033 49.0007 53.5963 46.8661 53.5963 44.2648V38.7334C53.5963 36.1307 51.0019 33.9961 47.8341 33.9961H42.5245C39.1557 33.9961 36.9844 36.0652 36.9844 38.7818V63.9412V49.0007H47.8341ZM47.8341 49.0007C51.0019 49.0007 53.5963 51.1352 53.5963 53.738V59.2694C53.5963 61.8707 51.0033 64.0053 47.8341 64.0053H36.9844M97 49C97 75.5097 75.5097 97 49 97C22.4903 97 1 75.5097 1 49C1 22.4903 22.4903 1 49 1C75.5097 1 97 22.4903 97 49ZM58.993 59.9069C59.3933 59.9069 59.7846 60.0271 60.1174 60.2522C60.4502 60.4774 60.7096 60.7974 60.8628 61.1719C61.0159 61.5463 61.056 61.9583 60.9779 62.3559C60.8998 62.7534 60.7071 63.1185 60.424 63.4051C60.141 63.6917 59.7804 63.8868 59.3878 63.9659C58.9953 64.045 58.5883 64.0044 58.2186 63.8493C57.8488 63.6942 57.5327 63.4315 57.3103 63.0945C57.0879 62.7576 56.9692 62.3614 56.9692 61.9561C56.9692 61.4126 57.1825 60.8914 57.562 60.5071C57.9415 60.1228 58.4563 59.9069 58.993 59.9069Z" stroke="#BF885E" stroke-width="1.5" stroke-linecap="round" stroke-linejoin="round"/>
</svg>
