<svg width="32" height="32" viewBox="0 0 32 32" fill="none" xmlns="http://www.w3.org/2000/svg">
<path d="M5.71649 27.2736C4.11304 25.8424 2.83083 24.0908 1.95352 22.1331C1.07622 20.1754 0.623531 18.0556 0.625004 15.9121C0.625004 13.3777 1.13683 11.2007 2.23284 9.09481M2.23284 9.09481C2.59003 9.8534 3.41634 10.7595 4.18458 11.102C5.35116 11.6158 5.5432 13.5208 5.60662 15.6001C5.76116 20.6661 5.73168 24.5561 5.84333 29.6773C5.86566 30.696 6.83394 31.4605 7.85581 31.3716C8.87679 31.2863 9.70483 30.376 9.55744 29.3688C9.17513 26.7634 8.70707 25.4059 8.24973 22.7765M2.23284 9.09481C1.5 7.00004 0.97323 0.668036 3 0.500027C3 0.500027 3 1.25684 3 4.50001C3 7.74317 4.72588 7.20931 5.15805 7.24317M9 2.99997C10.3394 1.19412 13.1849 0.646468 15.9495 0.646468C18.8373 0.646468 22.5 1.00003 25 3.50003M30.1409 10.1144C30.1409 10.1144 31.5 12.5001 31.5 16.0001C31.5 19.5001 30.218 22.136 28.8944 24.1807C28.1057 25.3992 27.1498 26.4956 26.0581 27.4401M9.62354 29.8257C11.8492 30.8308 14.2836 31.2931 16.7247 31.1743C18.7234 31.0771 20.6795 30.5926 22.4846 29.7525M8.66061 8.65628C9 7.00003 9.61915 0.5 7.5 0.5C7.5 0.5 7.44781 2.74784 7.5 4.50001C7.59317 7.62782 6.5 7.24317 5.15805 7.24317M23.7923 22.7765C23.335 25.4059 22.8669 26.7634 22.4846 29.3688C22.3372 30.376 23.1652 31.2863 24.1862 31.3716C25.2081 31.4605 25.9939 30.696 26.0162 29.6773C26.033 28.9064 26.0466 28.1634 26.0581 27.4401M26.2529 15.6001C26.1216 19.9035 26.1231 23.3584 26.0581 27.4401M25 11.0001C25.1688 8.98309 24.7945 0.338828 26.8213 0.506837C29 0.500027 30.7812 7.65628 30 11C27.6797 13.5169 26.6589 13.119 26.2403 16.5M26.2403 16.5C26.3298 14.9614 26.0699 13.416 25.4724 11.9809C24.6921 10.1067 23.3709 8.50483 21.6759 7.37782C19.9808 6.25082 17.988 5.64929 15.9495 5.64929V5.65373C13.2156 5.65373 10.5937 6.73452 8.66061 8.65833C6.72748 10.5821 5.64146 13.1914 5.64146 15.9121C5.64234 17.9408 6.24765 19.9237 7.38085 21.6101C8.51405 23.2965 10.1242 24.6106 12.0079 25.3864C13.8915 26.1621 15.964 26.3647 17.9632 25.9683C19.9625 25.572 21.7988 24.5946 23.24 23.1598C24.6811 21.725 25.6624 19.8971 26.0598 17.9073C26.1529 17.4411 26.213 16.9709 26.2403 16.5ZM5.15805 7.24317C5.59023 7.27703 5.15805 0.156315 5.15805 0.500097C5.15805 0.843879 5 7 5.15805 7.24317ZM15.9495 11.9809C18.5 12 20 14 20 16.0001C20 18.0002 18.399 20 15.9495 20C13.5 20 12 18 12.0079 15.9121C12.0157 13.8241 13.5 11.9809 16 12" stroke="#009DC4" stroke-linecap="round" stroke-linejoin="round"/>
</svg>
