<svg width="64" height="49" viewBox="0 0 64 49" fill="none" xmlns="http://www.w3.org/2000/svg">
<path d="M53.4366 38.3309H60.0008C60.7155 38.3214 61.3983 38.0353 61.9038 37.5334C62.4092 37.0315 62.6974 36.3534 62.7069 35.6437V22.2221C62.7069 5.39851 54.8887 1.81187 50.2699 1.89596C37.9838 2.11716 27.1547 1.94532 3.98198 1.94532C2.50007 1.94532 1.27588 3.29991 1.27588 4.77698V35.6437C1.28402 36.3537 1.5718 37.0323 2.07759 37.5343C2.58338 38.0362 3.98198 38.3291 3.98198 38.3291H10.5603M44.7697 38.3309H19.3935M41.7507 2.07694C41.7507 3.8465 41.7507 20.3191 41.7322 21.5677M10.5603 38.3291C9.76164 39.3075 9.32015 40.5332 9.32015 41.8042C9.32015 42.8957 9.6461 43.9628 10.2568 44.8703C10.8675 45.7779 11.7354 46.4853 12.751 46.903C13.7665 47.3207 14.884 47.43 15.962 47.2171C17.0401 47.0041 18.0304 46.4785 18.8076 45.7067C19.5849 44.9348 20.1142 43.9515 20.3286 42.8809C20.5431 41.8103 20.433 40.7007 20.0124 39.6922C19.5917 38.6838 18.8794 37.8218 17.9654 37.2154C17.0515 36.609 15.977 36.2853 14.8778 36.2853C13.4038 36.2853 11.9902 36.8668 10.9479 37.9018C10.8107 38.038 10.6814 38.1807 10.5603 38.3291ZM49.105 36.2853C50.2043 36.285 51.279 36.6083 52.1932 37.2145C53.1073 37.8207 53.82 38.6825 54.2409 39.691C54.6618 40.6994 54.7721 41.8091 54.5579 42.8798C54.3437 43.9505 53.8145 44.934 53.0373 45.706C52.2601 46.478 51.2699 47.0038 50.1918 47.2169C49.1136 47.43 47.9961 47.3208 46.9804 46.9032C45.9648 46.4855 45.0967 45.7782 44.486 44.8705C43.8752 43.9629 43.5492 42.8958 43.5492 41.8042C43.5492 40.3408 44.1345 38.9374 45.1763 37.9024C46.2182 36.8675 47.6313 36.2858 49.105 36.2853ZM1.27588 21.5859C7.2915 21.5859 57.5524 21.5713 62.5062 21.5549L1.27588 21.5859ZM21.4847 2.07694C21.4847 3.8465 21.4755 20.3191 21.4663 21.5677L21.4847 2.07694Z" stroke="#7D9E36" stroke-width="2" stroke-linecap="round" stroke-linejoin="round"/>
</svg>
