<svg width="98" height="98" viewBox="0 0 98 98" fill="none" xmlns="http://www.w3.org/2000/svg">
<path d="M35.5002 58.151H30.6236C30.1541 58.1459 29.7052 57.9557 29.3731 57.621C29.041 57.2862 28.852 56.8337 28.8467 56.3602V35.7758C28.8467 34.7907 29.6505 33.8874 30.6236 33.8874C46.4962 33.8874 54.9203 34.002 62.9878 33.8545C66.0206 33.7984 71.1544 36.1903 71.1544 47.4096V56.3602C71.1481 56.8335 70.9589 57.2856 70.627 57.6204C70.2951 57.9551 69.8468 58.1459 69.3774 58.1522H64.4984M58.6316 58.1522H41.367M28.8467 46.9853C33.4534 46.9853 67.7698 46.9756 71.0226 46.9646M56.7371 34.1943C56.7371 35.3743 56.7371 46.1652 56.725 46.9979M97 49C97 75.5097 75.5097 97 49 97C22.4903 97 1 75.5097 1 49C1 22.4903 22.4903 1 49 1C75.5097 1 97 22.4903 97 49ZM61.5662 56.7881C62.2881 56.7878 62.9937 57.0035 63.594 57.4077C64.1943 57.812 64.6623 58.3867 64.9386 59.0592C65.215 59.7317 65.2875 60.4718 65.1468 61.1858C65.0061 61.8998 64.6587 62.5557 64.1483 63.0705C63.638 63.5854 62.9878 63.936 62.2798 64.0781C61.5719 64.2203 60.8381 64.1474 60.1712 63.8689C59.5043 63.5904 58.9343 63.1187 58.5332 62.5134C58.1322 61.9081 57.9181 61.1965 57.9181 60.4685C57.9181 59.4926 58.3024 58.5567 58.9865 57.8665C59.6707 57.1763 60.5986 56.7884 61.5662 56.7881ZM38.4348 56.7881C39.1566 56.7881 39.8621 57.0039 40.4623 57.4083C41.0624 57.8127 41.5302 58.3876 41.8064 59.0601C42.0826 59.7326 42.1548 60.4726 42.014 61.1865C41.8732 61.9005 41.5257 62.5563 41.0153 63.071C40.5049 63.5857 39.8547 63.9362 39.1468 64.0782C38.4389 64.2203 37.7051 64.1474 37.0383 63.8688C36.3714 63.5902 35.8015 63.1185 35.4005 62.5133C34.9995 61.908 34.7855 61.1964 34.7855 60.4685C34.7855 59.4924 35.17 58.5563 35.8543 57.866C36.5387 57.1758 37.4669 56.7881 38.4348 56.7881ZM42.7732 34.1943C42.7732 35.3743 42.7671 46.1652 42.7611 46.9979L42.7732 34.1943Z" stroke="#BF885E" stroke-width="1.5" stroke-linecap="round" stroke-linejoin="round"/>
</svg>
