<svg width="54" height="48" viewBox="0 0 54 48" fill="none" xmlns="http://www.w3.org/2000/svg">
<path d="M35.3492 28.87V30.7145M4.197 4.52382H49.8072C50.6358 4.52742 51.4294 4.85693 52.0149 5.44049C52.6004 6.02405 52.9304 6.81433 52.9328 7.63901V43.8219C52.9304 44.6471 52.6 45.4379 52.0138 46.0215C51.4277 46.6052 50.6333 46.9343 49.8041 46.9371H4.19395C3.36532 46.9335 2.57172 46.604 1.98621 46.0205C1.4007 45.4369 1.07077 44.6466 1.06836 43.8219V7.63901C1.07077 6.81381 1.40112 6.02307 1.98729 5.43943C2.57346 4.85578 3.36784 4.52662 4.197 4.52382V4.52382ZM11.2079 1.0625V8.28725V1.0625ZM21.7363 1.0625V8.28725V1.0625ZM32.2648 1.0625V8.28725V1.0625ZM42.7933 1.0625V8.28725V1.0625ZM18.6916 19.7248V21.5465V19.7248ZM27.0158 19.7248V21.5465V19.7248ZM35.3416 19.7248V21.5465V19.7248ZM10.3734 38.0318V39.8763V38.0318ZM18.6977 38.0318V39.8763V38.0318ZM27.0219 38.0318V39.8763V38.0318ZM43.6277 19.6959V21.5177V19.6959ZM10.3734 28.873V30.7175V28.873ZM33.4287 35.6544H37.0531C37.4539 35.6556 37.838 35.8147 38.1212 36.097C38.4045 36.3792 38.564 36.7615 38.5648 37.1604V40.7523C38.5636 41.1508 38.4039 41.5326 38.1206 41.8142C37.8373 42.0959 37.4535 42.2544 37.0531 42.2552H33.4302C33.0297 42.2544 32.6457 42.0959 32.3622 41.8143C32.0787 41.5327 31.9186 41.1509 31.917 40.7523V37.1604C31.9178 36.7613 32.0775 36.3787 32.3611 36.0964C32.6447 35.8142 33.0291 35.6552 33.4302 35.6544H33.4287ZM43.6277 28.873V30.7175V28.873ZM26.9762 28.873V30.7175V28.873ZM18.6504 28.873V30.7175V28.873ZM1.06836 12.6913H52.9328H1.06836ZM8.56429 17.3322H12.1872C12.588 17.3334 12.972 17.4925 13.2553 17.7747C13.5386 18.0569 13.6981 18.4393 13.6989 18.8382V22.4301C13.6977 22.8286 13.538 23.2104 13.2547 23.492C12.9714 23.7737 12.5876 23.9322 12.1872 23.933H8.56429C8.16373 23.9322 7.77977 23.7737 7.49625 23.4921C7.21272 23.2105 7.05268 22.8287 7.05107 22.4301V18.8367C7.05188 18.4375 7.21156 18.0549 7.49517 17.7727C7.77878 17.4904 8.16321 17.3315 8.56429 17.3307V17.3322Z" stroke="white" stroke-width="2" stroke-linecap="round" stroke-linejoin="round"/>
</svg>
