<svg width="130" height="130" viewBox="0 0 130 130" fill="none" xmlns="http://www.w3.org/2000/svg">
<path d="M71.5793 77.8607L72.2296 78.6203C72.6398 78.2692 72.6971 77.6559 72.3592 77.2348C72.0213 76.8137 71.4101 76.7369 70.9784 77.0613L71.5793 77.8607ZM69.2117 84.6717L70.2027 84.5376C70.2001 84.5182 70.1969 84.499 70.1931 84.4798L69.2117 84.6717ZM75.6541 86.1081L76.2614 86.9025C76.2663 86.8989 76.2711 86.8951 76.2758 86.8913L75.6541 86.1081ZM77.9411 83.3805L78.8703 83.0108C78.7267 82.65 78.3873 82.405 77.9997 82.3822C77.612 82.3595 77.2463 82.5632 77.0615 82.9047L77.9411 83.3805ZM83.562 87.8028L83.7383 86.8185C83.7261 86.8163 83.7139 86.8143 83.7016 86.8126L83.562 87.8028ZM86.8798 82.1861L85.9412 82.5312L85.9442 82.5392L86.8798 82.1861ZM84.8183 78.9582L84.8087 77.9582C84.4061 77.9621 84.0451 78.207 83.8927 78.5796C83.7403 78.9522 83.8262 79.3799 84.1106 79.6647L84.8183 78.9582ZM91.2606 74.7779L90.3796 74.3049C90.3697 74.3232 90.3605 74.3418 90.3518 74.3607L91.2606 74.7779ZM86.9604 69.936L87.0046 70.935C87.0118 70.9347 87.019 70.9343 87.0262 70.9338L86.9604 69.936ZM82.8695 71.1303L81.9245 70.8031C81.7879 71.1977 81.9108 71.6356 82.2328 71.9014C82.5548 72.1673 83.008 72.2051 83.3696 71.9963L82.8695 71.1303ZM80.9046 63.4477L80.1822 64.1392C80.1986 64.1564 80.2156 64.1729 80.2332 64.1889L80.9046 63.4477ZM74.9132 66.0301L73.9504 65.7599L73.9486 65.7664L74.9132 66.0301ZM74.8004 70.3556L74.2351 71.1804C74.5732 71.4122 75.0186 71.4141 75.3587 71.1853C75.6989 70.9564 75.8648 70.5431 75.7775 70.1425L74.8004 70.3556ZM67.2146 70.049L67.6371 70.9553C67.6625 70.9435 67.6873 70.9306 67.7116 70.9167L67.2146 70.049ZM67.8105 76.5049L68.3632 75.6715L68.3561 75.6668L67.8105 76.5049ZM71.5149 77.9091L71.3764 78.8994C71.6384 78.9361 71.9042 78.8674 72.1157 78.7084L71.5149 77.9091ZM41.935 60.9641C41.5171 61.3252 41.471 61.9567 41.8321 62.3746C42.1932 62.7925 42.8247 62.8385 43.2426 62.4774L41.935 60.9641ZM64.7665 45.8391L65.2723 46.7018C65.283 46.6955 65.2937 46.689 65.3042 46.6823L64.7665 45.8391ZM73.8502 42.1592L73.8514 41.1592H73.8502V42.1592ZM86.9281 55.281L85.9281 55.281C85.9281 55.2899 85.9283 55.2989 85.9285 55.3079L86.9281 55.281ZM82.6292 63.5963C82.2388 63.9869 82.239 64.6201 82.6297 65.0105C83.0203 65.4009 83.6535 65.4007 84.0439 65.01L82.6292 63.5963ZM70.0567 78.1705C70.4596 77.7928 70.48 77.16 70.1023 76.7571C69.7246 76.3541 69.0917 76.3337 68.6888 76.7115L70.0567 78.1705ZM63.1237 83.2998L63.7902 84.0453C63.7961 84.04 63.8019 84.0347 63.8077 84.0293L63.1237 83.2998ZM46.0837 85.3334L46.5564 84.4522L46.5504 84.449L46.0837 85.3334ZM39.1582 66.821L40.0912 67.1808C40.0952 67.1705 40.099 67.1601 40.1027 67.1496L39.1582 66.821ZM56.0371 59.8324L56.5101 58.9513C56.4983 58.945 56.4864 58.9389 56.4744 58.9331L56.0371 59.8324ZM61.1588 73.6966L60.2262 73.3356C60.222 73.3466 60.2179 73.3577 60.214 73.3688L61.1588 73.6966ZM48.4996 78.942L48.0321 79.826C48.042 79.8312 48.052 79.8363 48.062 79.8412L48.4996 78.942ZM45.053 69.6455L45.9842 70.0099C45.9888 69.9981 45.9932 69.9862 45.9973 69.9743L45.053 69.6455ZM53.4924 66.1431L53.9582 65.2582C53.9482 65.2529 53.9381 65.2478 53.928 65.2429L53.4924 66.1431ZM55.2157 70.7914L54.2852 70.4252C54.2806 70.4368 54.2763 70.4485 54.2722 70.4603L55.2157 70.7914ZM51.4323 71.6347C50.9354 71.3937 50.3372 71.6012 50.0962 72.0982C49.8553 72.5951 50.0628 73.1933 50.5597 73.4343L51.4323 71.6347ZM78.537 73.4383L78.5205 72.4385C77.9715 72.4475 77.5325 72.8975 77.537 73.4466C77.5416 73.9956 77.9879 74.4383 78.537 74.4383V73.4383ZM75.6541 76.3758L74.6541 76.3758L74.6541 76.3759L75.6541 76.3758ZM78.5853 74.4383C79.1376 74.4383 79.5853 73.9906 79.5853 73.4383C79.5853 72.886 79.1376 72.4383 78.5853 72.4383V74.4383ZM128 64.9991C128 99.793 99.7939 127.999 65 127.999V129.999C100.899 129.999 130 100.898 130 64.9991H128ZM65 127.999C30.2061 127.999 2 99.793 2 64.9991H0C0 100.898 29.1015 129.999 65 129.999V127.999ZM2 64.9991C2 30.2051 30.2061 1.99908 65 1.99908V-0.000915527C29.1015 -0.000915527 0 29.1006 0 64.9991H2ZM65 1.99908C99.7939 1.99908 128 30.2051 128 64.9991H130C130 29.1006 100.899 -0.000915527 65 -0.000915527V1.99908ZM70.929 77.101C69.8327 78.0394 69.0053 79.2528 68.5312 80.6168L70.4203 81.2734C70.7782 80.2438 71.4027 79.3282 72.2296 78.6203L70.929 77.101ZM68.5312 80.6168C68.0571 81.9807 67.9532 83.4463 68.2303 84.8635L70.1931 84.4798C69.9839 83.4097 70.0624 82.3031 70.4203 81.2734L68.5312 80.6168ZM68.2208 84.8058C68.3718 85.9218 68.777 86.8197 69.4349 87.4557C70.0948 88.0938 70.9182 88.3806 71.7397 88.4392C73.3316 88.5526 75.049 87.8295 76.2614 86.9025L75.0467 85.3137C74.0848 86.0491 72.8388 86.5124 71.8819 86.4442C71.429 86.412 71.0817 86.266 70.8251 86.0179C70.5664 85.7678 70.3094 85.3261 70.2027 84.5376L68.2208 84.8058ZM76.2758 86.8913C77.3202 86.0623 78.1858 85.0298 78.8206 83.8563L77.0615 82.9047C76.5552 83.8407 75.8648 84.664 75.0323 85.3249L76.2758 86.8913ZM77.0119 83.7502C77.5418 85.0819 78.4136 86.2499 79.5394 87.1356L80.776 85.5638C79.9275 84.8962 79.27 84.0155 78.8703 83.0108L77.0119 83.7502ZM79.5394 87.1356C80.6651 88.0213 82.0047 88.5932 83.4224 88.793L83.7016 86.8126C82.6338 86.6621 81.6245 86.2313 80.776 85.5638L79.5394 87.1356ZM83.3857 88.7872C84.4939 88.9856 85.4723 88.8762 86.2789 88.4489C87.0886 88.02 87.6158 87.3287 87.9236 86.568C88.5198 85.0945 88.3503 83.2504 87.8154 81.833L85.9442 82.5392C86.3596 83.6397 86.4236 84.9429 86.0696 85.8178C85.9023 86.2313 85.6584 86.5144 85.3427 86.6816C85.024 86.8504 84.5226 86.9589 83.7383 86.8185L83.3857 88.7872ZM87.8184 81.8411C87.3227 80.4926 86.5406 79.2678 85.5259 78.2516L84.1106 79.6647C84.9206 80.476 85.5453 81.454 85.9412 82.5312L87.8184 81.8411ZM84.8279 79.9581C86.3768 79.9432 87.8893 79.4874 89.1892 78.6439L88.1005 76.9662C87.1191 77.603 85.9774 77.947 84.8087 77.9582L84.8279 79.9581ZM89.1892 78.6439C90.489 77.8005 91.5225 76.6043 92.1694 75.1951L90.3518 74.3607C89.8629 75.4258 89.082 76.3293 88.1005 76.9662L89.1892 78.6439ZM92.1416 75.251C92.6741 74.2594 92.8747 73.2957 92.7203 72.3971C92.5651 71.4945 92.0724 70.7791 91.4435 70.2526C90.2258 69.2331 88.4161 68.8377 86.8945 68.9381L87.0262 70.9338C88.1943 70.8567 89.4447 71.1876 90.1597 71.7861C90.4971 72.0686 90.6889 72.3852 90.7492 72.7359C90.8102 73.0907 90.7571 73.6018 90.3796 74.3049L92.1416 75.251ZM86.9161 68.937C85.3161 69.0078 83.7567 69.4631 82.3693 70.2644L83.3696 71.9963C84.479 71.3556 85.7257 70.9916 87.0046 70.935L86.9161 68.937ZM83.8144 71.4575C84.3399 69.9399 84.4079 68.3009 84.0099 66.7448L82.0723 67.2404C82.3732 68.4168 82.3218 69.6559 81.9245 70.8031L83.8144 71.4575ZM84.0099 66.7448C83.612 65.1887 82.7655 63.7842 81.5759 62.7066L80.2332 64.1889C81.1317 65.0028 81.7714 66.064 82.0723 67.2404L84.0099 66.7448ZM81.6269 62.7562C80.8486 61.9432 79.9939 61.4558 79.0904 61.327C78.1836 61.1977 77.3511 61.4472 76.6553 61.8808C75.3075 62.7205 74.3579 64.3079 73.9504 65.7599L75.876 66.3003C76.1933 65.1699 76.9106 64.0782 77.7129 63.5783C78.0921 63.342 78.4556 63.2567 78.808 63.3069C79.1638 63.3576 79.6318 63.5642 80.1822 64.1392L81.6269 62.7562ZM73.9486 65.7664C73.5202 67.3335 73.4772 68.9813 73.8234 70.5687L75.7775 70.1425C75.5 68.8704 75.5345 67.5497 75.8778 66.2938L73.9486 65.7664ZM75.3658 69.5308C74.1026 68.6649 72.6215 68.1728 71.0919 68.111L71.0111 70.1093C72.1646 70.156 73.2819 70.5271 74.2351 71.1804L75.3658 69.5308ZM71.0919 68.111C69.5623 68.0491 68.0463 68.4201 66.7176 69.1812L67.7116 70.9167C68.7142 70.3424 69.8576 70.0627 71.0111 70.1093L71.0919 68.111ZM66.7921 69.1426C65.7729 69.6176 65.0413 70.2752 64.6387 71.0963C64.2356 71.9185 64.2187 72.7896 64.416 73.5844C64.7986 75.1254 66.0106 76.5264 67.2649 77.343L68.3561 75.6668C67.4039 75.0469 66.5866 74.027 66.3571 73.1026C66.2484 72.6647 66.2799 72.292 66.4345 71.9768C66.5895 71.6607 66.9249 71.2873 67.6371 70.9553L66.7921 69.1426ZM67.2578 77.3383C68.4971 78.1601 69.9043 78.6936 71.3764 78.8994L71.6534 76.9187C70.4776 76.7543 69.3534 76.3282 68.3632 75.6715L67.2578 77.3383ZM72.1157 78.7084L72.1801 78.66L70.9784 77.0613L70.914 77.1097L72.1157 78.7084ZM43.2426 62.4774C50.0921 56.5588 57.4659 51.2784 65.2723 46.7018L64.2608 44.9765C56.3494 49.6146 48.8765 54.966 41.935 60.9641L43.2426 62.4774ZM65.3042 46.6823C68.2085 44.8302 70.6714 43.1592 73.8502 43.1592V41.1592C69.9747 41.1592 66.9938 43.2327 64.2288 44.996L65.3042 46.6823ZM73.849 43.1592C77.0533 43.1632 80.1254 44.4415 82.3904 46.7141L83.807 45.3023C81.1677 42.6542 77.5871 41.1638 73.8514 41.1592L73.849 43.1592ZM82.3904 46.7141C84.6555 48.9868 85.9281 52.068 85.9281 55.281L87.9281 55.281C87.9281 51.5393 86.4461 47.9503 83.807 45.3023L82.3904 46.7141ZM85.9285 55.3079C85.9698 56.8418 85.6984 58.368 85.1311 59.7931L86.9893 60.5328C87.657 58.8554 87.9763 57.0592 87.9278 55.2541L85.9285 55.3079ZM85.1311 59.7931C84.5638 61.2183 83.7124 62.5123 82.6292 63.5963L84.0439 65.01C85.3193 63.7337 86.3215 62.2102 86.9893 60.5328L85.1311 59.7931ZM68.6888 76.7115L62.4398 82.5703L63.8077 84.0293L70.0567 78.1705L68.6888 76.7115ZM62.4572 82.5543C60.3198 84.4654 57.6484 85.672 54.8046 86.0114L55.0416 87.9973C58.2933 87.6093 61.3472 86.2296 63.7902 84.0453L62.4572 82.5543ZM54.8046 86.0114C51.9609 86.3508 49.0816 85.8066 46.5564 84.4522L45.6111 86.2147C48.4979 87.7631 51.79 88.3854 55.0416 87.9973L54.8046 86.0114ZM46.5504 84.449C43.549 82.8654 41.2323 80.2317 40.0412 77.0479L38.168 77.7486C39.5306 81.391 42.1814 84.4052 45.6171 86.2179L46.5504 84.449ZM40.0412 77.0479C38.8501 73.864 38.8679 70.3524 40.0912 67.1808L38.2252 66.4611C36.8258 70.0894 36.8054 74.1063 38.168 77.7486L40.0412 77.0479ZM40.1027 67.1496C40.6243 65.6504 41.4566 64.2789 42.5447 63.1253L41.0897 61.753C39.808 63.1119 38.8279 64.7271 38.2138 66.4924L40.1027 67.1496ZM42.5447 63.1253C43.6327 61.9716 44.952 61.062 46.4157 60.456L45.6506 58.6081C43.9258 59.3222 42.3714 60.3941 41.0897 61.753L42.5447 63.1253ZM46.4157 60.456C47.8794 59.8499 49.4544 59.5612 51.0372 59.6088L51.0972 57.6097C49.2317 57.5536 47.3755 57.8939 45.6506 58.6081L46.4157 60.456ZM51.0372 59.6088C52.6201 59.6563 54.175 60.039 55.5999 60.7317L56.4744 58.9331C54.7954 58.1167 52.9628 57.6657 51.0972 57.6097L51.0372 59.6088ZM55.5642 60.7135C57.7445 61.8837 59.4226 63.8131 60.2816 66.1384L62.1577 65.4454C61.1297 62.6628 59.1211 60.3527 56.5101 58.9513L55.5642 60.7135ZM60.2816 66.1384C61.1406 68.4638 61.1209 71.0238 60.2262 73.3356L62.0914 74.0575C63.162 71.2911 63.1856 68.2279 62.1577 65.4454L60.2816 66.1384ZM60.214 73.3688C59.8353 74.4606 59.2301 75.4594 58.4386 76.2996L59.8943 77.6711C60.8795 76.6253 61.6324 75.3824 62.1036 74.0243L60.214 73.3688ZM58.4386 76.2996C57.647 77.1399 56.6869 77.8024 55.6217 78.2438L56.3873 80.0915C57.7139 79.5418 58.9091 78.7169 59.8943 77.6711L58.4386 76.2996ZM55.6217 78.2438C54.5564 78.6852 53.4101 78.8955 52.258 78.8608L52.1979 80.8599C53.6329 80.9031 55.0607 80.6412 56.3873 80.0915L55.6217 78.2438ZM52.258 78.8608C51.1059 78.8262 49.9741 78.5475 48.9372 78.0428L48.062 79.8412C49.3533 80.4696 50.7629 80.8168 52.1979 80.8599L52.258 78.8608ZM48.9672 78.0581C47.5703 77.3192 46.4934 76.0903 45.9429 74.6055L44.0677 75.3007C44.7888 77.2458 46.1999 78.857 48.0321 79.826L48.9672 78.0581ZM45.9429 74.6055C45.3924 73.1206 45.4071 71.4845 45.9842 70.0099L44.1217 69.281C43.3658 71.2127 43.3466 73.3557 44.0677 75.3007L45.9429 74.6055ZM45.9973 69.9743C46.2353 69.2911 46.6145 68.6662 47.1102 68.1404L45.6549 66.7685C44.9659 67.4993 44.439 68.3677 44.1086 69.3166L45.9973 69.9743ZM47.1102 68.1404C47.6058 67.6147 48.2066 67.2 48.8731 66.9234L48.1065 65.0761C47.1792 65.4609 46.3438 66.0377 45.6549 66.7685L47.1102 68.1404ZM48.8731 66.9234C49.5396 66.6468 50.2568 66.5145 50.9777 66.5352L51.035 64.536C50.0317 64.5072 49.0337 64.6913 48.1065 65.0761L48.8731 66.9234ZM50.9777 66.5352C51.6987 66.5558 52.4072 66.7289 53.0569 67.0433L53.928 65.2429C53.0242 64.8057 52.0384 64.5647 51.035 64.536L50.9777 66.5352ZM53.0266 67.028C53.6167 67.3386 54.072 67.857 54.3045 68.4842L56.1798 67.789C55.7762 66.7003 54.9852 65.7988 53.9582 65.2582L53.0266 67.028ZM54.3045 68.4842C54.5371 69.1114 54.5302 69.8027 54.2852 70.4252L56.1463 71.1576C56.5715 70.0772 56.5834 68.8776 56.1798 67.789L54.3045 68.4842ZM54.2722 70.4603C54.1758 70.735 54.0226 70.986 53.8229 71.197L55.2754 72.5719C55.6687 72.1563 55.9699 71.6624 56.1593 71.1225L54.2722 70.4603ZM53.8229 71.197C53.6232 71.4081 53.3813 71.5743 53.1133 71.685L53.8769 73.5335C54.4056 73.3151 54.8822 72.9874 55.2754 72.5719L53.8229 71.197ZM53.1133 71.685C52.8453 71.7957 52.5571 71.8484 52.2675 71.8398L52.2077 73.8389C52.7794 73.856 53.3483 73.7519 53.8769 73.5335L53.1133 71.685ZM52.2675 71.8398C51.9779 71.8311 51.6933 71.7612 51.4323 71.6347L50.5597 73.4343C51.0744 73.6839 51.636 73.8218 52.2077 73.8389L52.2675 71.8398ZM78.5535 74.4382C78.9363 74.4319 79.3125 74.5398 79.6342 74.7485L80.7228 73.0708C80.0678 72.6458 79.3011 72.4256 78.5205 72.4385L78.5535 74.4382ZM79.6342 74.7485C79.9559 74.9573 80.2086 75.2575 80.36 75.6111L82.1987 74.8243C81.8915 74.1063 81.3778 73.4958 80.7228 73.0708L79.6342 74.7485ZM80.36 75.6111C80.5113 75.9648 80.5542 76.3557 80.4832 76.734L82.4488 77.1031C82.593 76.3356 82.5059 75.5423 82.1987 74.8243L80.36 75.6111ZM80.4832 76.734C80.4122 77.1124 80.2304 77.4607 79.9615 77.7347L81.3889 79.1356C81.9358 78.5783 82.3047 77.8708 82.4488 77.1031L80.4832 76.734ZM79.9615 77.7347C79.6926 78.0087 79.3486 78.1961 78.9735 78.2733L79.3768 80.2322C80.1415 80.0748 80.8419 79.6929 81.3889 79.1356L79.9615 77.7347ZM78.9735 78.2733C78.5985 78.3505 78.209 78.3141 77.8545 78.1688L77.0956 80.0192C77.8179 80.3155 78.6121 80.3896 79.3768 80.2322L78.9735 78.2733ZM77.8545 78.1688C77.5 78.0234 77.1963 77.7754 76.9824 77.4561L75.3208 78.5692C75.7555 79.218 76.3732 79.7229 77.0956 80.0192L77.8545 78.1688ZM76.9824 77.4561C76.7685 77.1368 76.6541 76.7607 76.6541 76.3756L74.6541 76.3759C74.6542 77.1569 74.8862 77.9204 75.3208 78.5692L76.9824 77.4561ZM76.6541 76.3758C76.6541 75.8613 76.858 75.3682 77.2205 75.0051L75.8048 73.5923C75.0677 74.3309 74.6541 75.3322 74.6541 76.3758H76.6541ZM77.2205 75.0051C77.5828 74.6419 78.0738 74.4383 78.5853 74.4383V72.4383C77.542 72.4383 76.5418 72.8537 75.8048 73.5923L77.2205 75.0051ZM78.5853 72.4383H78.537V74.4383H78.5853V72.4383Z" fill="#7D9E36"/>
</svg>
