<svg width="64" height="64" viewBox="0 0 64 64" fill="none" xmlns="http://www.w3.org/2000/svg">
<path d="M34.1881 42.9327V51.1413M30.2561 47.0292H38.12M51.8782 23.3904L51.8314 26.6037C51.7902 29.447 49.9983 30.0031 47.686 29.9992C44.6415 29.9992 43.3514 30.9508 43.3514 35.4369V40.7083M59.2066 42.7252H62.3747V1.37109H1.31055V42.7232H27.4756M16.8643 8.28726L7.44255 18.1406M11.5187 7.01643L6.01581 12.7714M54.6287 59.5965C52.8743 56.906 51.0431 55.4707 49.1689 54.7012C47.2946 53.9316 45.3792 53.8298 43.4563 53.8024C41.5334 53.775 39.588 53.8141 37.6744 54.5661C35.7608 55.318 33.8754 56.7788 32.0573 59.5965C31.3308 60.7283 30.4246 61.6604 29.4454 62.1793C28.4661 62.6982 27.4157 62.8059 26.3971 62.2851L26.2099 62.193L26.0227 62.101C25.0041 61.584 24.3918 60.6304 24.1222 59.4771C23.1074 55.1398 27.7602 35.5035 33.5945 35.7189C39.0487 35.9147 34.5775 40.3245 43.3308 40.7083C52.5054 41.0999 47.0756 35.9265 53.0915 35.7209C58.8621 35.5251 63.5468 55.1574 62.5357 59.479C62.2661 60.6324 61.6538 61.584 60.6353 62.1029L60.448 62.195L60.2608 62.287C59.2422 62.8059 58.1824 62.708 57.1995 62.1911C56.2165 61.6741 55.3458 60.742 54.6287 59.5965ZM52.4979 42.917C52.3398 42.917 52.1852 42.9661 52.0538 43.058C51.9223 43.1498 51.8198 43.2804 51.7593 43.4332C51.6988 43.586 51.683 43.7541 51.7138 43.9163C51.7447 44.0785 51.8208 44.2275 51.9326 44.3444C52.0444 44.4613 52.1869 44.541 52.342 44.5732C52.4971 44.6055 52.6578 44.5889 52.8039 44.5257C52.95 44.4624 53.0748 44.3552 53.1627 44.2177C53.2505 44.0802 53.2974 43.9185 53.2974 43.7532C53.2974 43.6434 53.2768 43.5346 53.2366 43.4332C53.1964 43.3318 53.1375 43.2396 53.0633 43.1619C52.989 43.0843 52.9009 43.0227 52.8039 42.9807C52.7069 42.9387 52.6029 42.917 52.4979 42.917ZM52.4979 49.4533C52.3398 49.4533 52.1852 49.5024 52.0538 49.5942C51.9223 49.6861 51.8198 49.8167 51.7593 49.9695C51.6988 50.1223 51.683 50.2904 51.7138 50.4526C51.7447 50.6148 51.8208 50.7638 51.9326 50.8807C52.0444 50.9976 52.1869 51.0773 52.342 51.1095C52.4971 51.1418 52.6578 51.1252 52.8039 51.0619C52.95 50.9987 53.0748 50.8915 53.1627 50.754C53.2505 50.6165 53.2974 50.4548 53.2974 50.2895C53.2974 50.0677 53.2132 49.855 53.0633 49.6982C52.9133 49.5414 52.71 49.4533 52.4979 49.4533ZM49.373 46.2009C49.2148 46.2009 49.0603 46.2499 48.9288 46.3418C48.7973 46.4336 48.6948 46.5642 48.6343 46.717C48.5738 46.8698 48.558 47.0379 48.5888 47.2001C48.6197 47.3623 48.6958 47.5113 48.8076 47.6282C48.9194 47.7452 49.0619 47.8248 49.217 47.857C49.3721 47.8893 49.5328 47.8728 49.6789 47.8095C49.825 47.7462 49.9499 47.639 50.0377 47.5015C50.1256 47.364 50.1725 47.2024 50.1725 47.037C50.1725 46.8152 50.0882 46.6026 49.9383 46.4458C49.7884 46.289 49.585 46.2009 49.373 46.2009ZM55.6229 46.2009C55.4648 46.2009 55.3102 46.2499 55.1787 46.3418C55.0473 46.4336 54.9448 46.5642 54.8843 46.717C54.8238 46.8698 54.8079 47.0379 54.8388 47.2001C54.8696 47.3623 54.9458 47.5113 55.0576 47.6282C55.1694 47.7452 55.3119 47.8248 55.4669 47.857C55.622 47.8893 55.7828 47.8728 55.9289 47.8095C56.075 47.7462 56.1998 47.639 56.2877 47.5015C56.3755 47.364 56.4224 47.2024 56.4224 47.037C56.4224 46.8152 56.3382 46.6026 56.1883 46.4458C56.0383 46.289 55.835 46.2009 55.6229 46.2009ZM25.1052 50.2151H14.1918V54.2292H24.0005L25.1052 50.2151Z" stroke="#009DC4" stroke-width="2" stroke-linecap="round" stroke-linejoin="round"/>
</svg>
