<svg width="98" height="98" viewBox="0 0 98 98" fill="none" xmlns="http://www.w3.org/2000/svg">
<path d="M60.97 50.0051H63C62.7705 51.8937 59.457 52.7292 57.7758 52.7883H39.2242C37.5414 52.7292 34.2295 51.8903 34 50.0051H60.97ZM60.97 50.0051L60.9704 50M60.97 50.0051L36.0392 49.9212C36.0392 49.8552 36.035 49.5304 36.035 49.4653V49.2656C36.035 33.2973 60.97 33.3068 60.97 49.2656V49.9794C60.97 49.9911 60.9702 49.9973 60.9704 50M60.9704 50C60.9715 50.0118 60.974 49.9551 60.9704 50ZM56.562 61.4036L47.7452 64M54.6766 61.4036C52.8121 59.4411 57.4379 54.9057 57.7153 54.2305C58.9988 52.4807 55.5541 52.9709 54.6766 54.2305C54.1966 54.916 54.0243 55.4704 53.3695 55.8243C51.3521 56.9135 51.1941 55.4379 49.2759 53.4482C48.0268 52.1525 45.6151 53.1748 46.5944 54.1482L48.9318 56.7327M45.9077 53.4259C44.6339 52.0899 42.6678 53.4727 43.7194 54.5079M43.7194 54.5079C43.7247 54.5131 43.7301 54.5183 43.7356 54.5236M43.7194 54.5079L43.7356 54.5236M43.7194 54.5079L42.8412 53.6572C41.2752 52.1405 39.5142 53.9589 41.5316 55.6101L44.9864 58.4379C45.3352 58.7232 48.8174 62.1494 49.4314 63.5013M43.7356 54.5236L45.6642 56.7327M48.3739 39.4936C52.8794 39.4936 57.3849 42.0514 58.3499 47.1637M97 49C97 75.5097 75.5097 97 49 97C22.4903 97 1 75.5097 1 49C1 22.4903 22.4903 1 49 1C75.5097 1 97 22.4903 97 49ZM48.5 34C49.1506 34 49.6768 34.5656 49.6768 35.2631C49.6768 35.9606 49.1489 36.5261 48.5 36.5261C47.8511 36.5261 47.3232 35.9606 47.3232 35.2631C47.3232 34.5656 47.8494 34 48.5 34Z" stroke="#009DC4" stroke-width="1.5" stroke-linecap="round" stroke-linejoin="round"/>
</svg>
