<svg width="63" height="64" viewBox="0 0 63 64" fill="none" xmlns="http://www.w3.org/2000/svg">
<path d="M48.4409 57.6064L29.94 62.9667M44.4846 57.6064C40.5722 53.5548 50.2788 44.1915 50.8609 42.7975C53.5542 39.185 46.326 40.1969 44.4846 42.7975C43.4774 44.2127 43.1158 45.3573 41.7418 46.0879C37.5086 48.3364 37.177 45.2901 33.1519 41.1823C30.5308 38.5074 25.4704 40.618 27.5253 42.6276L32.4299 47.9634M26.0842 41.1363C23.3979 38.3641 19.244 41.2619 21.5264 43.4025M21.5264 43.4025L19.6497 41.6139C16.3637 38.4827 12.6684 42.2367 16.9017 45.6457L24.151 51.4836C24.883 52.0727 32.1899 59.1462 33.4782 61.9371M21.5264 43.4025L25.5733 47.9634M31.2593 12.3728C40.7135 12.3728 50.1677 17.6535 52.1926 28.2079M50.9879 39.8201C54.5155 39.698 61.4686 37.9732 61.9501 34.0741H1.09766C1.57918 37.9661 8.52871 39.698 12.0599 39.8201H50.9879ZM5.37673 33.9008C5.37673 33.7645 5.36791 33.0941 5.36791 32.9596C5.36791 32.8252 5.36791 32.6836 5.36791 32.5474C5.36791 -0.419398 57.6904 -0.399939 57.6904 32.5474C57.6904 32.6854 57.6904 33.8866 57.6904 34.0211C57.6904 34.1555 57.701 33.9379 57.6904 34.0741L5.37673 33.9008ZM31.5239 1.03125C32.8891 1.03125 33.9933 2.19884 33.9933 3.63887C33.9933 5.0789 32.8856 6.2465 31.5239 6.2465C30.1622 6.2465 29.0545 5.0789 29.0545 3.63887C29.0545 2.19884 30.1587 1.03125 31.5239 1.03125Z" stroke="#009DC4" stroke-width="2" stroke-linecap="round" stroke-linejoin="round"/>
</svg>
