<svg width="65" height="64" viewBox="0 0 65 64" fill="none" xmlns="http://www.w3.org/2000/svg">
<path d="M59.6687 10.0407V57.7281M5.22178 57.7183V10.0407M63.7693 57.7262H1.42975M63.6564 62.6302H1.53509M1.43163 62.5691V57.7262M63.7711 62.5613V57.7262M51.5013 57.7281V24.6542C45.1493 24.6542 38.7973 17.6614 32.4453 17.6614C26.0932 17.6614 19.7337 24.6444 13.3892 24.6444V57.7183L51.5013 57.7281ZM32.1876 1.37845H1.31689L4.91518 9.44022H59.9697L63.5736 1.37845H32.1876ZM42.9674 56.5016C47.0021 53.2258 48.5445 47.7233 43.8966 40.1399C44.3367 51.3712 37.6574 49.2214 37.3922 44.7368C37.1157 40.0631 42.2395 40.5356 40.2701 35.5214C39.3616 33.2062 37.285 30.9717 35.8855 30.7414C38.6205 36.9447 35.2065 37.5806 30.1881 40.8467C25.781 43.7052 30.079 47.2488 30.4646 49.6388C30.9104 55.2555 22.4555 51.7807 25.1603 44.5399C26.4224 41.1577 23.4881 38.2696 20.2303 36.5352C21.8761 40.8663 20.1814 42.0377 19.1017 45.2959C17.4464 50.3416 18.622 54.0546 21.2385 56.5016H42.9674Z" stroke="#009DC4" stroke-width="2" stroke-linecap="round" stroke-linejoin="round"/>
</svg>
