<svg width="130" height="130" viewBox="0 0 130 130" fill="none" xmlns="http://www.w3.org/2000/svg">
<path d="M59.578 54.3657C57.975 52.9211 58.1693 50.6092 59.1278 49.2994C60.0863 47.9895 60.3513 45.9692 58.8028 44.366M65.3036 53.6425C63.0998 51.9555 63.3648 49.2538 64.6846 47.7217C66.0044 46.1896 66.3674 43.8304 64.2362 41.9576M71.2762 54.3657C69.6823 52.9211 69.8638 50.611 70.8278 49.2994C71.7917 47.9877 72.0513 45.9692 70.5028 44.366M41.9526 82.1732H88.0465M71.1327 66.0336C71.0415 66.1546 70.9405 66.2721 70.8296 66.3857C66.6579 68.8142 62.2829 64.1085 62.2393 58.1149C67.149 58.0455 70.4328 60.2219 71.4495 62.5665M71.1327 66.0336C71.8956 65.0217 71.9722 63.7719 71.4495 62.5665M71.1327 66.0336L71.1128 66.2509C74.5892 68.3387 78.318 64.4365 78.4233 59.4029C75.5623 59.3228 72.95 60.0897 71.5685 61.2648L71.4495 62.5665M71.1327 66.0336L71.4495 62.5665M48.0922 78.9942C49.7968 76.6022 54.2644 75.6294 56.3666 78.9942M43.0927 78.8758C46.4057 72.3958 56.8695 69.5319 61.2463 78.9942M69.8148 78.9942C71.2671 77.0868 74.8506 76.3363 76.6079 78.9942M65.1893 78.9942C66.903 75.0719 70.5591 73.0334 73.7342 73.1646C76.5771 73.2866 79.3509 75.1594 81.1209 78.9942M63.0344 74.795C68.1901 68.2002 80.6979 65.8028 85.5794 78.9942M63.7787 70.1076C62.4299 68.3314 58.7302 67.9324 57.6755 71.0331M61.5967 65.535C58.6086 65.1961 55.5225 66.1872 54.0702 70.1295M129 65.0006C129 100.347 100.346 129.001 64.9995 129.001C29.6533 129.001 0.999512 100.347 0.999512 65.0006C0.999512 29.6544 29.6533 1.00061 64.9995 1.00061C100.346 1.00061 129 29.6544 129 65.0006ZM44.5341 82.4428C44.7646 83.8419 50.1744 88.043 54.1991 88.043H75.8019C79.5651 88.043 85.2418 83.8419 85.4669 82.4428H44.5341Z" stroke="#009DC4" stroke-width="2" stroke-linecap="round" stroke-linejoin="round"/>
</svg>
