<svg width="30" height="32" viewBox="0 0 30 32" fill="none" xmlns="http://www.w3.org/2000/svg">
<path d="M7.66791 31.3664H22.2494M21.6758 27.2543C22.2756 26.8883 22.8413 26.466 23.3658 25.9928C24.397 25.0589 25.474 23.9476 26.0519 22.716C26.3937 21.9909 26.6423 21.2231 26.7916 20.4319M0.790914 17.8437H29.3855M5.50617 8.68742C5.84259 7.46031 5.7407 5.56081 3.76079 4.39614M22.3117 14.9859C22.6279 13.5244 22.5181 12.4013 21.9929 11.5778C20.4381 9.13447 22.57 8.13902 22.1088 6.26034C21.9331 5.53638 21.2199 4.97802 20.3652 4.51559L20.3221 4.49297C19.5449 4.07962 18.6605 3.93041 17.7959 4.06674L17.7546 4.07398L17.7133 4.08212L17.672 4.09027L17.6316 4.09932L17.5912 4.10837L17.5508 4.11832L17.5104 4.12918L17.4709 4.14004C16.0874 4.53369 16.7242 6.15175 13.9898 7.17887C13.287 7.44221 12.5439 7.10466 11.8175 7.88111M28.3727 14.8791C28.7203 13.9812 28.8136 13.0002 28.6419 12.0499C28.4702 11.0995 28.0405 10.2188 27.4026 9.50989C26.7647 8.80098 25.9448 8.29293 25.038 8.04469C24.1311 7.79644 23.1745 7.81817 22.2792 8.10735M14.689 15.2673H28.3411C28.6159 15.2668 28.8799 15.3782 29.0755 15.5771C29.271 15.7761 29.3825 16.0466 29.3855 16.3297V18.0844C29.3855 25.3865 23.509 30.8524 16.3342 30.8524H13.6665C6.49173 30.8533 0.615234 25.3901 0.615234 18.0844V16.3297C0.617786 16.0464 0.729059 15.7757 0.92475 15.5766C1.12044 15.3775 1.38465 15.2664 1.65965 15.2673H14.689ZM11.763 15.0746C11.8005 14.9865 11.8353 14.896 11.8675 14.8031C12.2321 13.7823 12.3858 12.6828 12.4736 11.5833C12.7372 8.16979 9.6364 4.68753 6.64809 7.66754C6.22118 8.09739 5.91726 8.49557 5.63266 8.59693C5.34805 8.69828 4.87196 8.56706 4.27904 8.49467C0.2384 7.99423 -0.252625 12.4701 1.7958 15.0764L11.763 15.0746ZM22.4057 1.24419C20.7051 1.79893 19.825 4.30112 19.4947 5.66579L22.4057 1.24419ZM10.1424 1.11931C9.03119 0.535616 7.77683 0.45236 6.68234 1.008C5.51583 1.59984 4.78061 2.79076 4.57418 4.17533C5.68712 4.75541 6.93972 4.83957 8.03684 4.28393C9.20335 3.69209 9.93857 2.50117 10.145 1.1166L10.1424 1.11931Z" stroke="#009DC4" stroke-linecap="round" stroke-linejoin="round"/>
</svg>
