<svg width="63" height="64" viewBox="0 0 63 64" fill="none" xmlns="http://www.w3.org/2000/svg">
<path d="M1.32826 31.315L6.71172 25.9315L37.0994 56.321L31.7159 61.7045L1.32826 31.315ZM0.49364 41.7929L5.87711 36.4094L26.6143 57.1538L21.2308 62.5373L0.49364 41.8001V41.7929ZM0.294922 52.3683L5.67839 46.9848L16.0479 57.3543L10.6644 62.7378L0.294922 52.3683ZM24.5801 43.8361L19.1967 38.4526L37.2999 20.3475L42.6834 25.731L24.5801 43.8343V43.8361ZM30.3448 2.29847L24.9613 7.68194L55.349 38.0696L60.7324 32.6861L30.3448 2.29847ZM40.8227 1.46386L35.4392 6.84732L56.1836 27.5845L61.5671 22.201L40.8299 1.46386H40.8227ZM51.3981 1.26514L46.0146 6.6486L56.3841 17.0181L61.7676 11.6346L51.3981 1.26514Z" stroke="#009DC4" stroke-width="2" stroke-linecap="round" stroke-linejoin="round"/>
</svg>
