<svg width="32" height="32" viewBox="0 0 32 32" fill="none" xmlns="http://www.w3.org/2000/svg">
<path d="M4.43996 16.9892C4.84152 18.5683 3.8538 23.0551 3.11729 25.2498C2.47308 27.169 2.7909 29.7246 3.72629 30.3968C5.52688 31.6908 10.5 31.5 11.8955 30.5699C11.9931 30.5488 12.0886 30.5185 12.1809 30.4794C13.1068 26.451 8.55739 25.7917 13.064 17.5281M23.7128 5.93627C24.6768 4.94185 25.6246 4.91959 26.5 5.51524C27.3754 6.1109 28.4295 6.47485 29.5 5.51524M24.1953 9.7936C25.3219 8.42329 26.4761 8.68582 27.5 9.50521C28.5239 10.3246 29.7496 10.4549 31 9.13032M23.7138 13.5057C24.6777 12.5113 25.6246 12.4043 26.5 13C27.3754 13.5957 28.4295 13.9596 29.5 13M8.9618 0.5C11.9697 0.5 18.5858 3.80126 22.0571 4.60475V13.4047C18.5858 14.2082 11.9697 18.0045 8.9618 18.0045C6.8345 17.9564 4.80984 17.0395 3.32161 15.4502C1.83339 13.861 0.5 11.6324 0.5 9.40876C0.5 7.18515 1.83339 4.64346 3.32161 3.05422C4.80984 1.46498 6.8345 0.548087 8.9618 0.5ZM8.9618 5.18648C9.77893 5.18648 10.5777 5.43969 11.2571 5.91408C11.9366 6.38848 12.4662 7.06276 12.7789 7.85166C13.0916 8.64057 13.1735 9.50867 13.0142 10.3462C12.8548 11.1837 12.4614 11.9531 11.8837 12.557C11.306 13.1609 10.5698 13.5722 9.76844 13.7389C8.96703 13.9056 8.13631 13.8202 7.38133 13.4936C6.62634 13.1669 5.98099 12.6137 5.52688 11.9038C5.07277 11.1938 4.83029 10.3591 4.8301 9.50521C4.82998 8.93812 4.93676 8.37655 5.14434 7.85258C5.35192 7.32861 5.65624 6.85251 6.03991 6.45147C6.42359 6.05042 6.87911 5.73229 7.38045 5.51524C7.88179 5.29819 8.41914 5.18648 8.9618 5.18648Z" stroke="#009DC4" stroke-linecap="round" stroke-linejoin="round"/>
</svg>
