<svg width="64" height="64" viewBox="0 0 64 64" fill="none" xmlns="http://www.w3.org/2000/svg">
<path d="M49.4465 52.6776L39.828 20.5983C34.1927 5.04182 24.3885 0.164229 16.0566 1.58847C1.13993 4.13548 0.736054 21.151 4.82416 33.1285M2.49983 48C2.74181e-06 43 1.46065 37.4805 4.68001 33.1769C19.9696 20.95 40.0811 42.1687 40.0811 50.9306C40.0811 59.5012 27.6461 59.6268 21.363 59.6268C15.08 59.6268 20.2444 59.6268 19.6986 59.5997M10.99 49.3943C11.7122 49.3943 12.4183 49.6096 13.0188 50.0131C13.6193 50.4165 14.0874 50.99 14.3638 51.6609C14.6402 52.3318 14.7125 53.0701 14.5716 53.7823C14.4307 54.4945 14.0829 55.1488 13.5722 55.6623C13.0615 56.1758 12.4108 56.5255 11.7024 56.6672C10.994 56.8088 10.2597 56.7361 9.59247 56.4582C8.92519 56.1803 8.35485 55.7097 7.95358 55.1059C7.55232 54.5021 7.33814 53.7922 7.33814 53.066C7.33814 52.0922 7.72289 51.1583 8.40773 50.4697C9.09258 49.7811 10.0214 49.3943 10.99 49.3943ZM49.5695 52.2756L61.0131 52.7568C61.484 52.8012 61.9511 52.8631 62.0952 53.3133L62.6142 54.925C62.6817 55.1431 62.6616 55.3792 62.5581 55.5826C62.4547 55.7859 62.2761 55.9405 62.0606 56.013L41.7835 62.6125C41.5663 62.682 41.3306 62.6626 41.1276 62.5583C40.9246 62.4541 40.7708 62.2736 40.6995 62.0559L40.1805 60.4461C40.0344 59.9939 40.3727 59.6731 40.7341 59.3582L49.5753 52.2833L49.5695 52.2756ZM10.99 43.4982C12.8737 43.4979 14.7152 44.0592 16.2817 45.1112C17.8481 46.1632 19.0691 47.6587 19.7901 49.4084C20.5112 51.1582 20.6999 53.0837 20.3325 54.9413C19.9651 56.799 19.058 58.5053 17.726 59.8446C16.394 61.1839 14.6969 62.0959 12.8494 62.4653C11.0018 62.8347 9.08677 62.6449 7.34649 61.9199C5.60621 61.1949 4.11886 59.9673 3.07254 58.3923C2.02623 56.8174 1.46796 54.9658 1.46834 53.0718C1.46834 50.5322 2.47171 48.0967 4.25772 46.3009C6.04373 44.5052 8.46608 43.4963 10.9919 43.4963L10.99 43.4982Z" stroke="#009DC4" stroke-width="2" stroke-linecap="round" stroke-linejoin="round"/>
</svg>
