<svg width="64" height="64" viewBox="0 0 64 64" fill="none" xmlns="http://www.w3.org/2000/svg">
<path d="M1.44922 36.6714H62.5511M24.453 22.2456C23.2533 21.1571 22.51 19.6784 22.3652 18.0923C22.2204 16.5063 22.6843 14.9242 23.6681 13.6486C24.6402 12.4413 25.12 10.9298 25.0161 9.40204C24.9122 7.87426 24.2318 6.43684 23.1046 5.36349M33.2882 20.959C32.5179 20.4018 31.8746 19.6966 31.3987 18.8874C30.9227 18.0783 30.6244 17.1826 30.5224 16.2566C30.4204 15.3306 30.5169 14.3942 30.8058 13.506C31.0947 12.6178 31.5698 11.7969 32.2014 11.0948C32.8672 10.4316 33.3794 9.63862 33.704 8.76862C34.0286 7.89863 34.1581 6.97163 34.0838 6.04938C34.0095 5.12712 33.7332 4.23078 33.2733 3.42006C32.8134 2.60934 32.1804 1.90285 31.4165 1.34766M40.5134 11.0948C39.367 12.173 38.6574 13.6135 38.5134 15.155C38.3694 16.6965 38.8005 18.2369 39.7285 19.4969C40.7006 20.7042 41.1804 22.2157 41.0764 23.7435C40.9725 25.2713 40.2922 26.7087 39.1649 27.782M11.2304 62.6574V37.2758M18.2341 62.0323V37.2758M25.2379 62.3164V37.2758M32.2014 62.2969V37.2758M39.2052 62.3164V37.2758M46.2895 62.2969V37.2758M53.2933 62.3164V37.2758M60.3775 37.0418C60.3775 48.7385 61.7058 62.6574 54.9436 62.6574H8.65425C2.89828 62.5405 3.66306 48.7385 3.66306 37.0418H60.3775Z" stroke="#009DC4" stroke-width="2" stroke-linecap="round" stroke-linejoin="round"/>
</svg>
