<svg width="32" height="32" viewBox="0 0 32 32" fill="none" xmlns="http://www.w3.org/2000/svg">
<path d="M25.8539 4.97261L29.0493 23.04M22.8155 0.742432V4.30011M5.75025 19.0495C5.10857 18.4693 5.18641 17.5401 5.57037 17.014C5.95432 16.4879 6.05952 15.6753 5.43993 15.0325M8.03926 18.7589C7.15774 18.0811 7.26398 16.9959 7.79206 16.3797C8.32013 15.7634 8.46529 14.8162 7.61323 14.063M10.4282 19.0485C9.78758 18.4682 9.86437 17.539 10.2483 17.0129C10.6323 16.4868 10.7375 15.6743 10.1179 15.0315M16.8822 20.8124L18.1446 12.3266L19.2365 4.97155H29.9975C30.186 4.97169 30.3671 5.04546 30.5029 5.17738C30.6386 5.30929 30.7184 5.4891 30.7254 5.67905C31.6406 14.1893 31.3566 17.0978 29.0504 23.0389L29.4438 25.6907C29.5753 26.5754 28.7074 27.3232 27.8249 27.3232H17.7764C16.8896 27.3232 16.026 26.5807 16.1574 25.6907L16.9254 20.5165C14.164 18.1521 14.2029 16.945 13.698 13.1402C13.3467 10.4884 12.8565 9.54646 11.4101 7.23408C11.0156 6.60295 10.2382 5.70027 9.3451 4.97261H12.1853L18.1403 12.3277L16.8822 20.8124ZM6.2064 28.9281C3.68175 27.5237 2.0502 23.3062 2.24375 21.171H13.6033C13.8137 23.5417 11.8435 27.6997 9.6407 28.9281H6.2064ZM4.60745 31.2617H11.2417C12.746 31.2617 15.014 29.574 15.1055 29.0108H0.736328C0.828899 29.573 2.99063 31.2617 4.60009 31.2617H4.60745Z" stroke="#009DC4" stroke-linecap="round" stroke-linejoin="round"/>
</svg>
