<svg width="64" height="64" viewBox="0 0 64 64" fill="none" xmlns="http://www.w3.org/2000/svg">
<path d="M8.95978 18.5669L1.27979 24.3205V62.691H62.7198V24.3205L55.0398 18.5669M1.92527 25.2477L24.2759 42.5627M62.0743 25.2496L39.7237 42.5627M36.8949 34.2576C35.4625 34.8794 33.9216 35.1973 32.3655 35.1922C26.3312 35.1922 21.4288 30.4891 21.4288 24.6869C21.4288 18.8847 26.3312 14.1872 32.3655 14.1872C38.4492 14.1872 43.6021 18.4155 42.1081 24.9823C41.8481 25.9945 41.3765 26.9371 40.7257 27.745C38.8149 30.233 34.0789 30.7247 34.3422 26.659C34.525 23.9504 34.8359 22.6999 36.339 19.9951M9.6583 31.1546V7.97566H54.3413V31.1546M40.7257 7.97566L31.9998 1.30798L23.0399 7.97566H31.9998H40.7257ZM62.7198 62.6817L38.8295 42.6805C34.8359 39.3364 28.7212 39.7084 25.2524 42.6113L1.27979 62.6891L62.7198 62.6817ZM31.8279 20.3054H32.3033C33.9856 20.3054 35.1029 21.7129 34.7865 23.4326L34.2636 26.2814C33.9472 28.0011 32.3125 29.4087 30.6302 29.4087H30.1548C28.4725 29.4087 27.3552 28.0011 27.6716 26.2814L28.1945 23.4326C28.5109 21.7129 30.1456 20.3054 31.8279 20.3054Z" stroke="#009DC4" stroke-width="2" stroke-linecap="round" stroke-linejoin="round"/>
</svg>
