<svg width="28" height="32" viewBox="0 0 28 32" fill="none" xmlns="http://www.w3.org/2000/svg">
<path d="M9.83634 17.4913H1.13327M9.53201 25.8416H0.828943M25.3121 20.1761C25.3508 20.8223 24.9843 21.4115 24.4567 21.8376C23.8713 22.2942 23.1455 22.5383 22.4002 22.5293M27.1119 13.7939H17.3239M26.9075 31.3761H17.5256M22.2166 24.5607V31.1086M9.62925 3.03066H4.88335M9.83544 17.4931V25.7605M9.63015 8.85216C10.0749 12.267 13.0516 11.7429 13.3883 15.4973L13.256 29.0416C13.2659 31.0917 13.3865 31.3769 10.9195 31.3761C8.27868 31.3707 5.85936 31.3761 3.21855 31.3761C0.757813 31.3814 0.753311 31.2219 0.764116 29.0416L0.630859 15.4973C0.966701 11.7429 3.94426 12.267 4.38904 8.85216V3.01551C3.1069 1.55545 4.40075 0.696174 6.86509 0.623973C6.96165 0.618506 7.05845 0.618506 7.15501 0.623973C9.61845 0.692608 10.9141 1.34776 9.63015 3.01105V8.85216ZM17.4761 9.82018H26.9589L27.3721 20.3989C27.4622 22.6861 25.0537 24.5607 22.222 24.5607C19.3903 24.5607 16.9827 22.6888 17.0718 20.3989L17.4806 9.82018H17.4761Z" stroke="#009DC4" stroke-linecap="round" stroke-linejoin="round"/>
</svg>
