<svg width="60" height="63" viewBox="0 0 60 63" fill="none" xmlns="http://www.w3.org/2000/svg">
<path d="M47.8354 27.8054C48.1522 25.7428 48.0134 23.6338 47.4292 21.6332C46.7632 19.3205 45.5421 17.215 43.8773 15.5084C42.189 13.7989 40.1079 12.6232 37.8843 12.2628C36.5525 12.0422 35.1892 12.1311 33.8954 12.5227M57.6075 32.6836C59.1763 27.7737 59.1722 22.4797 57.5959 17.5723C56.4671 14.0145 54.5761 10.7594 52.0611 8.0443C49.5945 5.34699 46.5129 3.31708 43.0919 2.13607C39.1484 0.808653 34.8921 0.814177 30.9519 2.15182M17.0119 21.7356C13.8854 24.8473 14.8288 31.8545 19.2913 37.8139C23.7537 43.7733 30.1241 46.5266 33.8743 44.2499M44.0525 57.8389C43.9158 58.0732 43.192 58.6975 40.5622 60.6847C35.4221 64.5664 23.2243 57.2303 12.6052 43.0545C1.98609 28.8787 -1.61971 14.951 3.22974 10.8546C5.84602 8.64694 6.5718 8.15262 6.81052 8.12898M45.121 55.8872L35.3027 42.7808C35.0325 42.4181 34.9136 41.9607 34.972 41.5087C35.0304 41.0566 35.2615 40.6466 35.6146 40.3682L40.0636 36.8804C40.239 36.7413 40.4396 36.6389 40.6538 36.5792C40.8679 36.5195 41.0915 36.5037 41.3117 36.5326C41.5319 36.5615 41.7443 36.6346 41.9368 36.7477C42.1293 36.8608 42.2981 37.0116 42.4335 37.1916L52.2517 50.298C52.3865 50.478 52.4853 50.6835 52.5424 50.9027C52.5995 51.1218 52.6138 51.3504 52.5845 51.5752C52.5551 51.8 52.4828 52.0167 52.3715 52.2128C52.2602 52.409 52.1122 52.5808 51.936 52.7184L47.487 56.2062C47.1326 56.4821 46.686 56.6033 46.2445 56.5436C45.8031 56.4838 45.4026 56.2478 45.1306 55.8872H45.121ZM18.7484 20.6603L8.93011 7.55391C8.65986 7.19126 8.54095 6.73389 8.59939 6.28181C8.65784 5.82973 8.88887 5.41971 9.24198 5.14139L13.691 1.65553C14.0455 1.37907 14.4926 1.25743 14.9345 1.31722C15.3764 1.377 15.7772 1.61334 16.0493 1.97458L25.8676 15.081C26.1397 15.4432 26.2602 15.901 26.2028 16.354C26.1455 16.807 25.9148 17.2182 25.5615 17.4975L21.1124 20.9853C20.7579 21.2618 20.3109 21.3834 19.8689 21.3236C19.427 21.2638 19.0262 21.0275 18.7541 20.6662L18.7484 20.6603Z" stroke="#009DC4" stroke-width="2" stroke-linecap="round" stroke-linejoin="round"/>
</svg>
