<svg width="32" height="32" viewBox="0 0 32 32" fill="none" xmlns="http://www.w3.org/2000/svg">
<path d="M23.7312 10.9239C25.4762 11.1544 27.1836 11.5107 29.0062 11.5902L29.6876 10.9088C30.0127 10.5837 30.8056 10.5837 31.1316 10.9088C31.4566 11.2339 31.4566 12.0279 31.1316 12.353L30.4529 13.0398C30.5735 15.7888 31.3218 18.2762 31.3218 21.0253C31.3218 23.7743 30.5717 26.2581 30.4529 29.0063L31.1343 29.6877C31.4593 30.0128 31.4593 30.8059 31.1343 31.1319C30.8092 31.457 30.0153 31.457 29.6903 31.1319L29.0089 30.4505C26.2602 30.5711 23.7732 31.3195 21.0254 31.3195C18.2777 31.3195 15.7897 30.5711 13.0411 30.4505L12.3597 31.1319C12.0346 31.457 11.2408 31.457 10.9157 31.1319C10.5906 30.8068 10.5906 30.0137 10.9157 29.6877L11.6096 28.9938C11.5774 27.538 11.4203 26.1545 11.28 24.7675M20.4512 8.90637C20.9727 9.96294 21.2826 10.531 21.4585 11.1187C23.2213 17.0071 21.7791 18.1279 19.0376 19.9044M28.5713 15.3566C29.1411 18.4155 29.6054 23.0696 28.3927 26.5207M8.14202 20.1607C3.05992 18.2985 2.87328 13.949 2.07404 9.37794L1.18104 8.96263C0.764896 8.76793 0.492529 8.02306 0.687204 7.60507C0.88188 7.18798 1.62754 6.91647 2.04368 7.11117L2.91615 7.51844C5.46211 6.46455 7.54371 4.91228 10.1263 3.97092C12.7089 3.02956 15.3057 2.88309 17.9258 2.05605L18.333 1.18257C18.5277 0.765475 19.2725 0.494856 19.6904 0.688666C20.1074 0.882475 20.3789 1.62913 20.1842 2.04533L19.777 2.91792C20.8299 5.45977 22.3846 7.54166 23.324 10.1246C24.2635 12.7075 24.4108 15.3048 25.2386 17.9252L26.1111 18.3325C26.5281 18.5263 26.7987 19.2729 26.6049 19.6891C26.4103 20.1062 25.6646 20.3777 25.2485 20.183L24.376 19.7758C21.8345 20.8288 19.7529 22.3837 17.1712 23.3233C14.5895 24.2629 11.9918 24.4102 9.3717 25.2382L8.96448 26.1116C8.7707 26.5278 8.02415 26.8003 7.60711 26.6055C7.19008 26.4108 6.91861 25.666 7.11328 25.2489L7.52853 24.3558C6.1792 22.7901 4.40836 20.1848 4.52178 17.5992L8.14202 20.1607Z" stroke="#009DC4" stroke-linecap="round" stroke-linejoin="round"/>
</svg>
