<svg width="64" height="64" viewBox="0 0 64 64" fill="none" xmlns="http://www.w3.org/2000/svg">
<path d="M25.8639 44.1933V5.85884C25.8672 4.6387 26.3444 3.46944 27.1914 2.60649C28.0384 1.74355 29.1863 1.25705 30.3844 1.25327C31.5827 1.25657 32.7311 1.74287 33.5785 2.60586C34.4258 3.46886 34.9033 4.63839 34.9066 5.85884M52.7105 44.1933V5.85884C52.7138 4.63839 53.1913 3.46886 54.0386 2.60586C54.886 1.74287 56.0344 1.25657 57.2327 1.25327C58.4311 1.25657 59.5794 1.74287 60.4268 2.60586C61.2742 3.46886 61.7517 4.63839 61.7549 5.85884M51.6292 23.0635H25.8639M51.6292 36.3144H25.8639M62.7694 46.0663C62.1455 47.6075 61.0985 48.9328 59.7539 49.8835C58.4094 50.8341 56.8242 51.3699 55.1883 51.4266C53.5524 51.4833 51.9352 51.0585 50.5303 50.2031C49.1254 49.3477 47.9924 48.0979 47.267 46.6035C46.5638 48.0538 45.4762 49.2749 44.1273 50.1287C42.7784 50.9824 41.2218 51.4349 39.6336 51.4349C38.0454 51.4349 36.4888 50.9824 35.1399 50.1287C33.791 49.2749 32.7034 48.0538 32.0002 46.6035C31.297 48.0538 30.2094 49.2749 28.8605 50.1287C27.5115 50.9824 25.955 51.4349 24.3668 51.4349C22.7786 51.4349 21.222 50.9824 19.8731 50.1287C18.5241 49.2749 17.4366 48.0538 16.7334 46.6035C16.008 48.0979 14.875 49.3477 13.4701 50.2031C12.0652 51.0585 10.4479 51.4833 8.81206 51.4266C7.17617 51.3699 5.591 50.8341 4.24644 49.8835C2.90187 48.9328 1.85491 47.6075 1.23096 46.0663M62.7694 57.3851C62.1455 58.9263 61.0985 60.2515 59.7539 61.2022C58.4094 62.1529 56.8242 62.6887 55.1883 62.7454C53.5524 62.8021 51.9352 62.3773 50.5303 61.5219C49.1254 60.6664 47.9924 59.4167 47.267 57.9223C46.5638 59.3726 45.4762 60.5937 44.1273 61.4474C42.7784 62.3012 41.2218 62.7537 39.6336 62.7537C38.0454 62.7537 36.4888 62.3012 35.1399 61.4474C33.791 60.5937 32.7034 59.3726 32.0002 57.9223C31.297 59.3726 30.2094 60.5937 28.8605 61.4474C27.5115 62.3012 25.955 62.7537 24.3668 62.7537C22.7786 62.7537 21.222 62.3012 19.8731 61.4474C18.5241 60.5937 17.4366 59.3726 16.7334 57.9223C16.008 59.4167 14.875 60.6664 13.4701 61.5219C12.0652 62.3773 10.4479 62.8021 8.81206 62.7454C7.17617 62.6887 5.591 62.1529 4.24644 61.2022C2.90187 60.2515 1.85491 58.9263 1.23096 57.3851" stroke="#009DC4" stroke-width="2" stroke-linecap="round" stroke-linejoin="round"/>
</svg>
