<svg width="32" height="32" viewBox="0 0 32 32" fill="none" xmlns="http://www.w3.org/2000/svg">
<path d="M20.857 11.1421L19.6983 12.3009M29.0656 8.17478H26.7775C26.6759 8.17478 26.5939 8.31472 26.5939 8.48586V12.3553C26.5939 12.5264 26.6768 12.6664 26.7775 12.6664H29.0665C29.1681 12.6664 29.2501 12.5264 29.2501 12.3553V8.48586C29.2501 8.31472 29.1672 8.17478 29.0665 8.17478H29.0656ZM29.0656 19.3329H26.7775C26.6759 19.3329 26.5939 19.4728 26.5939 19.644V23.5134C26.5939 23.6845 26.6768 23.8245 26.7775 23.8245H29.0665C29.1681 23.8245 29.2501 23.6845 29.2501 23.5134V19.644C29.2501 19.4728 29.1672 19.3329 29.0665 19.3329H29.0656ZM27.9764 7.72107V5.68163C27.9752 5.2418 27.7999 4.82033 27.4889 4.50933C27.1779 4.19832 26.7565 4.02308 26.3166 4.02191H5.68154C5.24172 4.02308 4.82025 4.19832 4.50924 4.50933C4.19824 4.82033 4.023 5.2418 4.02182 5.68163V26.3176C4.023 26.7574 4.19824 27.1789 4.50924 27.4899C4.82025 27.8009 5.24172 27.9762 5.68154 27.9773H26.3166C26.7565 27.9762 27.1779 27.8009 27.4889 27.4899C27.7999 27.1789 27.9752 26.7574 27.9764 26.3176V24.0081V7.72107ZM27.9764 19.119V13.1468V19.119ZM15.9991 9.13299C14.6416 9.13299 13.3146 9.53553 12.1859 10.2897C11.0572 11.0439 10.1775 12.1158 9.65803 13.37C9.13855 14.6241 9.00263 16.0041 9.26746 17.3355C9.53229 18.6669 10.186 19.8899 11.1459 20.8497C12.1057 21.8096 13.3287 22.4633 14.6601 22.7281C15.9915 22.993 17.3715 22.857 18.6256 22.3376C19.8798 21.8181 20.9517 20.9384 21.7059 19.8097C22.4601 18.681 22.8626 17.354 22.8626 15.9965C22.8626 14.1762 22.1395 12.4304 20.8523 11.1433C19.5652 9.85611 17.8194 9.13299 15.9991 9.13299V9.13299ZM15.9991 12.3624C15.2798 12.3624 14.5767 12.5757 13.9786 12.9753C13.3805 13.3749 12.9144 13.9429 12.6392 14.6074C12.3639 15.272 12.2919 16.0032 12.4322 16.7087C12.5725 17.4141 12.9189 18.0621 13.4275 18.5708C13.9361 19.0794 14.5841 19.4257 15.2896 19.5661C15.9951 19.7064 16.7263 19.6344 17.3908 19.3591C18.0554 19.0839 18.6233 18.6177 19.023 18.0197C19.4226 17.4216 19.6359 16.7185 19.6359 15.9992C19.6359 15.0346 19.2527 14.1096 18.5707 13.4276C17.8886 12.7456 16.9636 12.3624 15.9991 12.3624V12.3624ZM27.4068 0.624023H4.58784C3.537 0.627785 2.53032 1.04708 1.78752 1.79038C1.04471 2.53369 0.6261 3.54065 0.623047 4.59149V27.4104C0.626574 28.4614 1.04576 29.4683 1.78909 30.2113C2.53243 30.9543 3.53952 31.3731 4.59051 31.3761H27.4095C28.4605 31.3724 29.4674 30.953 30.2104 30.2095C30.9534 29.466 31.3721 28.4588 31.3751 27.4078V4.58881C31.3714 3.53783 30.952 2.53101 30.2085 1.78818C29.465 1.04535 28.4578 0.626842 27.4068 0.624023V0.624023ZM15.9973 9.13299V10.7776V9.13299ZM11.1412 11.1421L12.2999 12.3009L11.1412 11.1421ZM9.13202 16.0001H10.7766H9.13202ZM11.1412 20.858L12.2999 19.6992L11.1412 20.858ZM15.992 22.8734V21.2217V22.8734ZM20.857 20.858L19.6983 19.6992L20.857 20.858ZM22.8724 16.0072H21.2207H22.8724Z" stroke="#009DC4" stroke-linecap="round" stroke-linejoin="round"/>
</svg>
