<svg width="64" height="64" viewBox="0 0 64 64" fill="none" xmlns="http://www.w3.org/2000/svg">
<path d="M45.4636 62.6205H28.7199H28.5292C28.1246 62.4626 27.7965 62.1532 27.6138 61.7572V61.6421V61.5078V49.3831C27.5883 48.8635 27.3841 48.369 27.0363 47.9841C26.6884 47.5991 26.2185 47.3477 25.7068 47.2728H13.3492H13.1585C12.7539 47.1149 12.4258 46.8055 12.2431 46.4094V33.7284C12.1896 33.2381 11.9715 32.7807 11.6248 32.4319C11.2781 32.0831 10.8235 31.8637 10.3361 31.8099H1.37305M46.8748 23.0234C45.7585 21.956 45.0671 20.5159 44.9302 18.9727C44.7933 17.4295 45.2203 15.889 46.1311 14.6397C47.0522 13.4515 47.5068 11.9641 47.4084 10.4606C47.3099 8.95706 46.6652 7.54248 45.5971 6.48619M55.2467 21.8339C54.505 21.2856 53.8852 20.5876 53.4268 19.7847C52.9685 18.9817 52.6817 18.0913 52.5847 17.1705C52.4878 16.2497 52.5829 15.3187 52.864 14.437C53.145 13.5552 53.6058 12.7422 54.2169 12.0497C54.8478 11.3971 55.3331 10.6166 55.6407 9.76048C55.9483 8.90431 56.0709 7.99204 56.0006 7.08444C55.9302 6.17683 55.6684 5.29473 55.2326 4.49689C54.7968 3.69905 54.197 3.00379 53.4732 2.45741M62.093 12.0497C60.9766 13.1171 60.2852 14.5572 60.1483 16.1004C60.0114 17.6436 60.4384 19.1841 61.3492 20.4334C62.2703 21.6216 62.725 23.109 62.6265 24.6125C62.528 26.116 61.8834 27.5306 60.8152 28.5869M26.6984 16.6732C24.2956 16.4814 21.7974 17.8627 20.9773 21.738L17.8307 35.0713C17.0489 39.9442 19.8331 41.9394 23.8379 42.1121L36.6531 42.3423L39.9142 55.2152C42.7366 61.2776 50.0214 56.6349 47.5423 51.3783L45.0059 38.1025C44.6573 36.8259 43.916 35.693 42.8884 34.866C41.8608 34.039 40.5994 33.5602 39.2848 33.4982L27.7282 33.0761L30.7413 23.3495C31.7902 19.9538 31.3134 16.9418 26.6984 16.5965V16.6732ZM32.5339 2.91784C33.9228 4.01319 34.8315 5.61079 35.0666 7.37029C35.3017 9.1298 34.8446 10.9121 33.7926 12.3375C33.2499 13.0134 32.5784 13.5734 31.8176 13.9847C31.0568 14.3959 30.2219 14.6501 29.3621 14.7323C28.5023 14.8145 27.6348 14.7231 26.8106 14.4634C25.9864 14.2037 25.2221 13.781 24.5626 13.22C23.1845 12.1257 22.283 10.5356 22.0482 8.7853C21.8134 7.03501 22.2636 5.2614 23.3039 3.83871C23.8466 3.1628 24.5181 2.60279 25.2789 2.19155C26.0397 1.7803 26.8746 1.52611 27.7344 1.4439C28.5942 1.3617 29.4617 1.45313 30.2859 1.71283C31.1101 1.97253 31.8744 2.39526 32.5339 2.95621V2.91784Z" stroke="#009DC4" stroke-width="2" stroke-linecap="round" stroke-linejoin="round"/>
</svg>
