<svg width="64" height="64" viewBox="0 0 64 64" fill="none" xmlns="http://www.w3.org/2000/svg">
<path d="M33.109 13.9729C33.8489 11.591 34.8144 4.47756 33.5474 2.607C30.6934 -1.62076 24.6006 6.01354 24.5229 6.04776C20.7959 7.59135 17.903 7.07618 13.9281 7.68069C12.6777 7.87079 7.77797 5.64095 7.78722 6.93931C7.83716 14.1535 8.82118 26.3007 7.69289 32.5074C7.01591 36.2238 4.25437 39.6607 3.69948 43.3961C2.84863 49.0667 2.88008 55.1555 8.65471 55.4445M59.0856 55.0643C60.9889 54.2583 61.0611 47.9414 59.4944 46.567C56.866 44.2611 55.7525 46.6259 48.0765 41.4933M35.4895 33.9483L42.0558 38.7958M31.8328 29.386C31.7051 27.6561 31.7218 22.2897 31.8124 20.5484L31.8328 29.386ZM33.5899 29.4867C31.7495 29.0476 24.1141 36.2257 22.6973 37.8377C20.4241 40.423 21.2324 43.4779 22.1424 43.8429C25.875 43.6528 32.0011 35.3037 36.087 33.2221C36.849 33.0073 34.7256 29.4943 33.5862 29.4867H33.5899ZM45.7052 36.9005C43.8648 36.4614 39.2813 42.689 37.8645 44.301C35.5913 46.8863 36.3996 49.9412 37.3096 50.3062C41.0422 50.1161 44.1163 42.7175 48.2022 40.6359C48.9606 40.4173 46.839 36.9062 45.6978 36.8967L45.7052 36.9005ZM33.1442 14.4234C32.9334 14.4185 32.7242 14.462 32.5319 14.5508C27.2734 16.2788 20.757 15.4766 15.0601 15.4766C15.0601 16.5031 14.7808 20.4191 15.8129 20.4001C17.0448 20.3697 20.8532 20.7803 22.9785 20.7803C24.9261 20.7803 32.9241 20.2556 33.7065 18.3261C34.2392 17.0126 34.5869 14.8702 33.1516 15.0032L33.1442 14.4234ZM4.3857 55.5681H59.2447C61.6492 55.5681 62.7054 57.5964 62.7054 60.0753V62.6701H37.2467C36.9545 62.2348 34.5499 59.6646 31.1428 59.2388C28.1686 59.5088 26.6926 60.1475 24.9446 62.6701H1.29492V60.0715C1.29492 57.6002 1.97375 55.5681 4.3857 55.5681Z" stroke="#009DC4" stroke-width="2" stroke-linecap="round" stroke-linejoin="round"/>
</svg>
