<svg width="32" height="32" viewBox="0 0 32 32" fill="none" xmlns="http://www.w3.org/2000/svg">
<path d="M3.5 21.8484C1.5 13 6.5 12.5 6.5 12.5C6.5 12.5 11.5 11.428 12.8774 20M27.0044 18.5C29 11 24.5389 9.5 24.5389 9.5C24.5389 9.5 20.5 7.5 17.6507 17M12.6884 13.4641C13.0104 19.7009 12.6884 22.7642 13.3601 25.3873C15.099 32.0368 5.9259 33.4951 5.00583 27.6068C4.03976 21.3518 1.84079 19.1597 0.847115 14.1703C0.360477 12.0717 0.725684 9.86637 1.86315 8.03499C3.00061 6.20361 4.81811 4.89462 6.91957 4.39332C10.2318 3.73295 12.0444 9.40105 12.716 13.4641H12.6884ZM19.1565 8.88744C17.8684 14.9958 17.7304 18.0591 16.6263 20.6088C13.8661 26.9006 22.708 29.7805 24.5389 24.0941C26.4986 18.0224 29.0012 16.1973 30.7678 11.428C31.5769 9.43019 31.5609 7.19451 30.7233 5.2084C29.8857 3.22229 28.2943 1.64684 26.2962 0.825531C23.122 -0.339273 20.4538 4.9803 19.1565 8.88744Z" stroke="#009DC4" stroke-linecap="round" stroke-linejoin="round"/>
</svg>
