<svg width="30" height="32" viewBox="0 0 30 32" fill="none" xmlns="http://www.w3.org/2000/svg">
<path d="M8.30068 0.671387H29.3278M11.3632 0.932459V4.22383M11.3632 8.97908V19.5805C11.3632 23.0117 10.1401 27.9255 7.40432 29.2029M3.83756 16.3357H19.6079M29.3278 9.06299C29.3278 9.80486 29.0326 10.5163 28.5073 11.0409C27.982 11.5655 27.2695 11.8602 26.5266 11.8602C25.7837 11.8602 25.0713 11.5655 24.5459 11.0409C24.0206 10.5163 23.7255 9.80486 23.7255 9.06299C23.7255 7.25414 25.8917 5.98607 26.5266 3.77628C27.395 5.9581 29.3278 7.25414 29.3278 9.06299ZM7.32029 7.89749V4.86719C7.32029 4.59679 7.6751 4.37302 8.1046 4.37302H14.6405C15.0701 4.37302 15.4249 4.59679 15.4249 4.86719V7.89749H7.32029ZM6.47061 8.87651H16.6293C17.1085 8.92378 17.5565 9.13543 17.897 9.47544C18.2375 9.81545 18.4494 10.2628 18.4968 10.7413L22.3623 29.3893C22.5771 30.415 21.5033 31.2541 20.4949 31.2541H2.59573C1.54998 31.2541 0.485554 30.3777 0.728317 29.3893L4.59386 10.7413C4.80862 9.71568 5.45287 8.87651 6.46128 8.87651H6.47061Z" stroke="#009DC4" stroke-linecap="round" stroke-linejoin="round"/>
</svg>
