<svg width="50" height="49" viewBox="0 0 50 49" fill="none" xmlns="http://www.w3.org/2000/svg">
<g clip-path="url(#clip0)">
<path d="M8.34252 42.3389L11.4981 39.1666M25.2543 10.7451C27.8996 10.7454 30.4854 11.5343 32.6848 13.012C34.8841 14.4896 36.5982 16.5898 37.6103 19.0468C38.6224 21.5038 38.8871 24.2073 38.3708 26.8155C37.8546 29.4237 36.5806 31.8194 34.71 33.6998C32.8393 35.5801 30.4561 36.8606 27.8616 37.3793C25.2671 37.898 22.5779 37.6316 20.134 36.6138C17.6901 35.5961 15.6012 33.8727 14.1316 31.6615C12.662 29.4503 11.8776 26.8507 11.8776 24.1913C11.8776 22.4254 12.2236 20.6768 12.8959 19.0453C13.5681 17.4139 14.5535 15.9315 15.7956 14.6829C17.0378 13.4343 18.5125 12.4439 20.1354 11.7682C21.7583 11.0926 23.4978 10.7449 25.2543 10.7451V10.7451ZM25.4556 1.90454V6.39124V1.90454ZM25.4556 43.4587V47.9454V43.4587ZM41.6592 8.1087L38.502 11.2826L41.6592 8.1087ZM49.0197 25.5891H44.5567H49.0197ZM41.0139 42.3374L37.8522 39.165L41.0139 42.3374ZM8.98624 8.1087L12.1434 11.2826L8.98624 8.1087ZM0.980469 24.6717H5.44348H0.980469Z" stroke="#334347" stroke-width="2" stroke-linecap="round" stroke-linejoin="round"/>
</g>
<defs>
<clipPath id="clip0">
<rect width="50" height="48" fill="white" transform="translate(0 0.925049)"/>
</clipPath>
</defs>
</svg>
