<svg width="32" height="32" viewBox="0 0 32 32" fill="none" xmlns="http://www.w3.org/2000/svg">
<path d="M19.9993 19.9245H0.621094V0.63916H31.3784V19.9245H29.0908M24.5359 26.411V22.0997M22.4394 24.2568H26.6324M22.6009 19.508V19.3601M24.5368 19.5053V19.3601M26.4726 19.5053V19.3601M22.6018 17.4423V17.2971M24.5377 17.4423V17.2971M26.4735 17.4423V17.2971M22.6027 15.3794V15.2342M24.5385 15.3794V15.2342M26.4744 15.3794V15.2342M14.1704 20.086V23.2951M17.83 20.086V23.2951M22.6045 28.9918V28.8466M24.5403 28.9918V28.8466M26.4762 28.9918V28.8466M7.99444 3.86464L3.52801 8.45994M5.46033 3.27196L2.85165 5.9559M20.5035 14.2022V30.252C20.5044 30.5457 20.6182 30.8272 20.8201 31.0349C21.022 31.2426 21.2955 31.3597 21.581 31.3607H27.4907C27.7762 31.3597 28.0498 31.2426 28.2516 31.0349C28.4535 30.8272 28.5673 30.5457 28.5683 30.252V14.2022C28.5673 13.9085 28.4535 13.6271 28.2516 13.4194C28.0498 13.2117 27.7762 13.0946 27.4907 13.0936H21.5855C21.2993 13.0936 21.0247 13.2103 20.822 13.418C20.6192 13.6258 20.5047 13.9078 20.5035 14.2022ZM19.9993 23.4193H7.63319V25.2914H19.9993V23.4193Z" stroke="#009DC4" stroke-linecap="round" stroke-linejoin="round"/>
</svg>
