<svg width="24" height="21" viewBox="0 0 24 21" fill="none" xmlns="http://www.w3.org/2000/svg">
<path d="M0.911273 19.8452L8.29969 7.26284L13 15.9999M11.8725 13.5967L14.1313 10.7731L17.8364 16.5066L19.3826 14.8495L22.9511 20.253M0.574219 0.592041H23.4289V20.4078H0.574219V0.592041ZM18.3063 3.3996C18.7755 3.3996 19.2342 3.54347 19.6244 3.81302C20.0145 4.08258 20.3186 4.4657 20.4982 4.91395C20.6777 5.3622 20.7247 5.85544 20.6332 6.3313C20.5416 6.80716 20.3157 7.24426 19.9839 7.58734C19.6521 7.93042 19.2294 8.16405 18.7691 8.25871C18.3089 8.35336 17.8319 8.30478 17.3984 8.11911C16.9649 7.93344 16.5944 7.61902 16.3337 7.2156C16.073 6.81219 15.9338 6.3379 15.9338 5.85272C15.9338 5.20211 16.1838 4.57815 16.6287 4.1181C17.0736 3.65805 17.6771 3.3996 18.3063 3.3996Z" stroke="#667A7F" stroke-linecap="round" stroke-linejoin="round"/>
</svg>
