<svg width="32" height="32" viewBox="0 0 32 32" fill="none" xmlns="http://www.w3.org/2000/svg">
<path d="M4.35272 16.1302H2.60617C2.07018 16.1287 1.5566 15.9164 1.17768 15.5399C0.798756 15.1633 0.585307 14.653 0.583984 14.1205C0.583984 13.0152 1.53619 12.412 2.60617 12.1124L15.9989 8.35511M15.9989 8.35511L29.3924 12.1149C30.4616 12.4136 31.4146 13.0218 31.4146 14.1238C31.4131 14.6561 31.1995 15.1662 30.8206 15.5426C30.4417 15.919 29.9283 16.1312 29.3924 16.1327H27.7945M15.9989 8.35511C16.0757 6.22338 16.5134 6.58683 17.991 5.35791C18.5423 4.89572 18.8162 4.14891 18.8162 3.37886C18.8035 2.64501 18.5011 1.94548 17.9742 1.43098C17.4474 0.916479 16.7381 0.628174 15.9993 0.628174C15.2605 0.628174 14.5512 0.916479 14.0243 1.43098C13.4974 1.94548 13.1951 2.64501 13.1824 3.37886M27.5406 31.4191V15.0938C27.5365 14.9408 27.4717 14.7956 27.3603 14.6897C27.2489 14.5839 27.1 14.5261 26.9459 14.5287H5.05184C4.8979 14.5261 4.7491 14.5838 4.63775 14.6895C4.52641 14.7951 4.4615 14.9401 4.45713 15.093V31.4233L27.5406 31.4191ZM27.5406 31.4191H4.45796" stroke="#009DC4" stroke-linecap="round" stroke-linejoin="round"/>
</svg>
