<svg width="27" height="24" viewBox="0 0 27 24" fill="none" xmlns="http://www.w3.org/2000/svg">
<rect x="0.5" y="0.5" width="26" height="9" rx="2.5" stroke="white"/>
<path d="M24.4964 9.5C24.4301 14.0491 23.4536 17.505 21.6619 19.8349C19.8222 22.2272 17.0709 23.5 13.358 23.5C9.64662 23.5 6.96999 22.2287 5.20148 19.842C3.47559 17.5129 2.56498 14.0558 2.50335 9.5H13.0741H24.4964Z" stroke="white"/>
<circle cx="13" cy="19" r="1.5" stroke="white"/>
<path d="M12.7222 23.5C10.8394 23.5 9.23686 22.8662 8.5 22.4644V19.625C8.5 16.7376 10.5685 14.5 13 14.5C15.4315 14.5 17.5 16.7375 17.5 19.625L17.5 22.6757C16.5839 23.0423 14.6616 23.5 12.7222 23.5Z" stroke="white"/>
</svg>
