<svg width="63" height="63" viewBox="0 0 63 63" fill="none" xmlns="http://www.w3.org/2000/svg">
<path d="M1.3335 14.9998C1.3335 14.9998 12.7376 0.999756 32.0002 0.999756C51.5788 0.999756 62.0002 14.9998 62.0002 14.9998M8.00016 26.9998C8.00016 26.9998 17.3335 14.9998 32.0217 14.9998C46.7099 14.9998 56.0002 26.9998 56.0002 26.9998M16.0002 38.9998C16.0002 38.9998 21.3335 30.9998 32.0217 30.9998C42.7099 30.9998 49.2904 38.9998 49.2904 38.9998M36.0002 48.9998C37.1521 49.7231 38.0643 50.7728 38.6214 52.0161C39.1785 53.2595 39.3555 54.6406 39.13 55.9848C38.9044 57.3291 38.2866 58.5761 37.3545 59.5681C36.4224 60.5601 35.2179 61.2525 33.8934 61.5578C32.569 61.8632 30.6523 61.5849 29.3819 61.1007C28.1115 60.6164 27.0129 59.7652 26.2249 58.6546C25.4369 57.544 24.9949 56.2239 24.9549 54.8614C24.9149 53.4988 25.2787 52.1549 26.0002 50.9998C26.9674 49.4511 28.5082 48.3512 30.2837 47.9419C32.0593 47.5326 34.4559 48.0301 36.0002 48.9998Z" stroke="#009DC4" stroke-width="2" stroke-linecap="round" stroke-linejoin="round"/>
</svg>
