<svg width="98" height="98" viewBox="0 0 98 98" fill="none" xmlns="http://www.w3.org/2000/svg">
<path d="M31.4999 44.5001C33.3476 40.303 37.9999 34.0001 48.9999 34.0001C59.9999 34.0001 64.6554 40.0949 66.9999 44.5001M36.5844 48.445C38.7111 44.2644 43.5215 40.9258 49.0107 40.9258C54.4999 40.9258 59.8551 43.769 62.0741 48.6315M41.6132 53.0763C42.4314 51.8665 43.5347 50.8781 44.8251 50.1986C46.1156 49.5192 47.5533 49.1697 49.0107 49.1813C52.4464 49.2087 55.4304 51.1627 56.3522 52.9789M97 49C97 75.5097 75.5097 97 49 97C22.4903 97 1 75.5097 1 49C1 22.4903 22.4903 1 49 1C75.5097 1 97 22.4903 97 49ZM51.1358 57.4798C51.7117 57.8414 52.1678 58.3663 52.4464 58.988C52.7249 59.6096 52.8134 60.3002 52.7007 60.9723C52.5879 61.6444 52.279 62.2679 51.8129 62.7639C51.3469 63.2599 50.7447 63.6062 50.0824 63.7588C49.4202 63.9115 48.7277 63.8637 48.0925 63.6216C47.4573 63.3795 46.908 62.9539 46.514 62.3986C46.12 61.8433 45.899 61.1832 45.879 60.502C45.859 59.8207 46.0409 59.1488 46.4016 58.5712C46.8852 57.7969 47.6556 57.2469 48.5434 57.0422C49.4312 56.8376 50.3637 56.995 51.1358 57.4798Z" stroke="#009DC4" stroke-width="1.5" stroke-linecap="round" stroke-linejoin="round"/>
</svg>
