<svg width="98" height="98" viewBox="0 0 98 98" fill="none" xmlns="http://www.w3.org/2000/svg">
<path d="M50.6534 49.3616C50.5735 50.2779 50.7795 51.4925 51.6562 52.4784C51.7504 52.5827 51.8515 52.6805 51.9589 52.7714M51.9589 52.7714L47.956 60.8956L43.6346 52.8784C43.7972 52.7588 43.9478 52.6242 44.0845 52.4764C44.8561 51.6306 45.0169 50.3049 44.9455 49.3532M51.9589 52.7714L55.4877 54.0525C61.8526 56.3984 62.8027 58.6234 60.9989 66M35 66C33.4852 58.1496 34.5997 55.266 43.6336 52.8753M38.6794 62.6358H43.5085M37.3843 54.7558C35.2073 52.2509 36.762 50.5818 36.762 46.5953C36.762 39.0223 36.9596 31.4156 47.6512 31.9267C58.3428 32.4379 58.6444 37.066 58.6444 44.639C58.6444 49.3964 58.5614 52.0161 56.9941 54.0493M97 49C97 75.5097 75.5097 97 49 97C22.4903 97 1 75.5097 1 49C1 22.4903 22.4903 1 49 1C75.5097 1 97 22.4903 97 49ZM50.0941 38.0509C48.468 38.0509 44.587 37.7704 43.4791 36.1475C42.2471 37.4057 41.2716 40.2239 41.2716 42.226C41.2716 46.0286 43.9983 50.094 47.4336 50.094C50.8689 50.094 53.645 47.0104 53.645 43.2036C53.645 39.3969 53.5262 38.0509 50.0941 38.0509Z" stroke="#009DC4" stroke-width="1.5" stroke-linecap="round" stroke-linejoin="round"/>
</svg>
