<svg width="52" height="64" viewBox="0 0 52 64" fill="none" xmlns="http://www.w3.org/2000/svg">
<path d="M30.7791 33.1641C30.6352 34.819 31.0063 37.0125 32.5855 38.7932C32.7551 38.9814 32.9373 39.1582 33.1308 39.3223M33.1308 39.3223L25.9203 53.9945L18.1362 39.5156C18.429 39.2996 18.7003 39.0564 18.9466 38.7894C20.3364 37.2621 20.6261 34.8678 20.4974 33.1491M33.1308 39.3223L39.4873 41.6358C50.9524 45.8727 52.6638 49.8909 49.4146 63.2131M2.58253 63.2131C-0.145998 49.0353 1.86153 43.8274 18.1343 39.5099M9.2102 57.1374H17.9089M6.87741 42.9061C2.95598 38.3822 5.75646 35.3679 5.75646 28.1683C5.75646 14.4915 6.11245 0.753712 25.3712 1.67688C44.63 2.60005 45.1734 10.9583 45.1734 24.6351C45.1734 33.2269 45.0239 37.9582 42.2006 41.6302M29.7717 12.7371C26.8425 12.7371 19.8517 12.2305 17.8559 9.2996C15.6367 11.5719 13.8796 16.6615 13.8796 20.2772C13.8796 27.1447 18.7913 34.4869 24.9793 34.4869C31.1672 34.4869 36.168 28.9179 36.168 22.0429C36.168 15.1679 35.954 12.7371 29.7717 12.7371Z" stroke="#009DC4" stroke-width="2" stroke-linecap="round" stroke-linejoin="round"/>
</svg>
